<?xml version="1.0" encoding="UTF-8" standalone="no"?>
<svg
   xmlns:dc="http://purl.org/dc/elements/1.1/"
   xmlns:cc="http://creativecommons.org/ns#"
   xmlns:rdf="http://www.w3.org/1999/02/22-rdf-syntax-ns#"
   xmlns:svg="http://www.w3.org/2000/svg"
   xmlns="http://www.w3.org/2000/svg"
   xmlns:sodipodi="http://sodipodi.sourceforge.net/DTD/sodipodi-0.dtd"
   xmlns:inkscape="http://www.inkscape.org/namespaces/inkscape"
   height="512pt"
   viewBox="-91 0 512 512.00008"
   width="512pt"
   version="1.1"
   id="svg56"
   sodipodi:docname="dead_oetzi.svg"
   inkscape:version="1.0.1 (c497b03c, 2020-09-10)">
  <metadata
     id="metadata62">
    <rdf:RDF>
      <cc:Work
         rdf:about="">
        <dc:format>image/svg+xml</dc:format>
        <dc:type
           rdf:resource="http://purl.org/dc/dcmitype/StillImage" />
        <dc:title></dc:title>
      </cc:Work>
    </rdf:RDF>
  </metadata>
  <defs
     id="defs60" />
  <sodipodi:namedview
     pagecolor="#ffffff"
     bordercolor="#666666"
     borderopacity="1"
     objecttolerance="10"
     gridtolerance="10"
     guidetolerance="10"
     inkscape:pageopacity="0"
     inkscape:pageshadow="2"
     inkscape:window-width="1810"
     inkscape:window-height="967"
     id="namedview58"
     showgrid="false"
     inkscape:zoom="1.4584077"
     inkscape:cx="323.87879"
     inkscape:cy="300.59627"
     inkscape:window-x="0"
     inkscape:window-y="23"
     inkscape:window-maximized="0"
     inkscape:current-layer="svg56" />
  <path
     d="m 128.31628,297.05398 -3.93286,-14.47524 -103.580902,28.1425 -44.31794,27.58478 z m 0,0"
     fill="#f69b65"
     id="path10" />
  <path
     d="m -49.619108,386.71479 1.031996,-18.28122 79.221786,-21.52423 -9.832156,-36.1881 -77.201284,20.97527 c -3.113684,0.84597 -5.338774,3.59184 -5.519678,6.81451 l -2.677678,47.35482 c -0.232486,4.13531 2.928715,7.6805 7.067796,7.91196 4.131544,0.23351 7.676731,-2.92769 7.909218,-7.06301 z m 0,0"
     fill="#967151"
     id="path12" />
  <path
     d="m 108.65197,224.67778 3.93286,14.47524 -103.5808992,28.1425 -52.1836648,-1.3657 z m 0,0"
     fill="#f9b589"
     id="path14" />
  <path
     d="m -90.190066,237.38987 10.140055,15.24178 79.2217858,-21.52423 9.832156,36.1881 -77.2012838,20.97526 c -3.113684,0.84598 -6.422359,-0.39638 -8.209182,-3.08443 l -26.272805,-39.4891 c -2.29314,-3.44911 -1.36056,-8.10656 2.09232,-10.40072 3.445338,-2.29212 8.102787,-1.35954 10.396954,2.09334 z m 0,0"
     fill="#cb9851"
     id="path16" />
  <path
     d="M -26.856432,278.33394 -37.344065,239.7333 c -1.085634,-3.99577 1.275419,-8.11841 5.271189,-9.20405 3.999539,-1.08666 8.118417,1.27542 9.204051,5.27119 l 10.487633,38.60064 c 1.086658,3.99954 -1.27165,8.1174 -5.271189,9.20405 -3.995769,1.08564 -8.117393,-1.27165 -9.204051,-5.27119 z m 0,0"
     fill="#a15538"
     id="path18" />
  <path
     d="M -5.2256894,357.94777 -15.713322,319.34713 c -1.086658,-3.99954 1.275419,-8.11842 5.271189,-9.20405 3.9995387,-1.08666 8.1173933,1.27165 9.2040513,5.27118 l 10.487633,38.60065 c 1.0866577,3.99954 -1.2716502,8.11739 -5.2711891,9.20405 -3.99576959,1.08563 -8.1173936,-1.27165 -9.2040516,-5.27119 z m 0,0"
     fill="#893a31"
     id="path20" />
  <path
     d="m 361.66226,365.77701 c -1.08666,-3.99954 -5.20828,-6.35682 -9.20405,-5.27119 -43.9007,11.92764 -89.31796,-14.08616 -101.24457,-57.98308 l -19.66431,-72.3762 -14.47524,3.93286 19.66431,72.37621 c 14.09583,51.88092 67.77175,82.62128 119.65267,68.52545 3.99577,-1.08563 6.35785,-5.20451 5.27119,-9.20405 z m 0,0"
     fill="#967151"
     id="path24" />
  <path
     d="m 193.11949,256.13155 -145.332922,39.48635 7.865725,28.95048 c 2.163074,7.96138 10.446721,12.70545 18.408103,10.54238 L 204.91808,299.55727 Z m 0,0"
     fill="#893a31"
     id="path26" />
  <path
     d="M 66.194671,306.16027 197.05235,270.60679 173.45518,183.75534 42.597497,219.30883 c -7.961382,2.16307 -12.705453,10.44672 -10.542378,18.4081 l 15.731449,57.90097 c 2.163074,7.96138 10.446721,12.70545 18.408103,10.54237 z m 0,0"
     fill="#a15538"
     id="path28" />
  <path
     d="m 89.691968,268.68859 c -1.086658,-3.99954 1.27542,-8.11842 5.271189,-9.20405 l 9.650163,-2.62191 c 3.99577,-1.08563 8.11739,1.27165 9.20405,5.27119 1.08666,3.99954 -1.27542,8.11842 -5.27119,9.20405 l -9.65016,2.62191 c -3.99577,1.08563 -8.117394,-1.27165 -9.204052,-5.27119 z m 0,0"
     fill="#893a31"
     id="path30" />
  <path
     d="m 57.700842,246.29288 c -1.086658,-3.99954 1.27542,-8.11842 5.271189,-9.20405 l 9.650161,-2.62191 c 3.995769,-1.08563 8.117393,1.27165 9.204051,5.27119 1.086658,3.99954 -1.275419,8.11842 -5.271189,9.20405 l -9.65016,2.62191 c -3.99577,1.08563 -8.117394,-1.27165 -9.204052,-5.27119 z m 0,0"
     fill="#893a31"
     id="path32" />
  <path
     d="m 73.432292,304.19384 c -1.086658,-3.99954 1.275419,-8.11841 5.271189,-9.20405 l 9.65016,-2.62191 c 3.99577,-1.08563 8.117394,1.27165 9.204052,5.27119 1.086658,3.99954 -1.27542,8.11842 -5.271189,9.20405 l -9.650161,2.62191 c -3.995769,1.08564 -8.117393,-1.27165 -9.204051,-5.27119 z m 0,0"
     fill="#762916"
     id="path34" />
  <path
     d="m 388.36443,187.54053 -173.70288,47.19435 36.8162,21.08476 c 6.51585,23.98215 31.23326,38.12516 55.21919,31.60828 l 28.95048,-7.86572 c 39.90869,-10.84303 63.55492,-52.13183 52.71701,-92.02167 z m 0,0"
     fill="#f9d4a0"
     id="path36" />
  <path
     d="m 298.83122,258.47744 28.95048,-7.86572 c 39.90869,-10.84303 67.08425,-39.14181 60.58273,-63.07119 -10.83687,-39.88607 -52.12158,-63.51722 -92.03027,-52.6742 l -28.96072,7.82803 c -23.98593,6.51688 -38.14299,31.24216 -31.62714,55.22431 l -21.08475,36.81621 28.95048,-7.86573 c 6.51585,23.98216 31.23326,38.12517 55.21919,31.60829 z m 0,0"
     fill="#ffebcf"
     id="path38" />
  <path
     d="m 258.03252,279.94504 -7.86572,-28.95048 -86.43648,44.20947 c 7.75799,9.14119 17.20646,17.11471 28.21776,23.42092 l 52.02794,-14.13578 c 10.61517,-2.88409 16.9406,-13.92896 14.0565,-24.54413 z m 0,0"
     fill="#967151"
     id="path40" />
  <path
     d="m 250.1668,250.99456 -20.97527,-77.20129 c -2.8841,-10.61517 -13.92896,-16.9406 -24.54414,-14.0565 l -52.02793,14.13577 c -22.83084,39.86505 -16.96982,88.23942 11.11086,121.33149 l 72.37997,-19.66534 c 10.61518,-2.8841 16.94061,-13.92896 14.05651,-24.54413 z m 0,0"
     fill="#cb9851"
     id="path42" />
  <path
     d="m 359.41395,195.40626 -97.46662,26.48127 56.18933,31.36494 9.65016,-2.62191 c 23.98215,-6.51585 38.14298,-31.24215 31.62713,-55.2243 z m 0,0"
     fill="#f69b65"
     id="path44" />
  <path
     d="M 359.41395,195.40626 C 352.8981,171.4241 328.1718,157.26327 304.18964,163.77912 l -9.65016,2.62191 -28.65929,69.96174 54.0409,-14.68269 c 23.98216,-6.51585 41.66516,-18.27852 39.49286,-26.27382 z m 0,0"
     fill="#f9b589"
     id="path46" />
  <path
     d="m 311.24391,227.88311 c 1.23884,-1.42952 2.29078,-3.01064 3.13965,-4.6985 l -70.77153,3.68454 c 6.51585,23.98216 31.23838,38.14402 55.22431,31.62714 l 19.30032,-5.24382 z m 0,0"
     fill="#7c5d51"
     id="path48" />
  <path
     d="m 290.97061,229.54581 23.41295,-6.3612 c 2.39423,-4.77527 3.11636,-10.41585 1.60467,-15.97977 -2.04529,-7.52788 -7.68051,-13.117 -14.55497,-15.43067 l -6.89378,-25.37314 -19.30032,5.24381 c -23.98592,6.51688 -38.14298,31.24216 -31.62713,55.22431 2.17229,7.99531 23.37266,9.19353 47.35858,2.67666 z m 0,0"
     fill="#967151"
     id="path50" />
  <path
     d="m 74.521244,82.415734 c 1.24001,3.954684 5.44942,6.151352 9.40038,4.912519 43.408346,-13.610855 89.794506,10.633082 103.404186,54.037697 l 22.43932,71.5645 14.3129,-4.48787 -22.43932,-71.5645 C 185.55369,85.579007 130.73282,56.930326 79.433764,73.015354 c -3.95096,1.238834 -6.15253,5.445695 -4.91252,9.40038 z m 0,0"
     fill="#967151"
     id="path24-5"
     style="fill:#cb9851;fill-opacity:1;stroke-width:0.999998" />
  <path
     d="m 216.21005,264.3683 c -1.08666,-3.99954 1.27542,-8.11842 5.27118,-9.20405 l 9.65017,-2.62191 c 3.99576,-1.08563 8.11739,1.27165 9.20405,5.27119 1.08665,3.99954 -1.27542,8.11842 -5.27119,9.20405 l -9.65016,2.62191 c -3.99577,1.08563 -8.1174,-1.27165 -9.20405,-5.27119 z m 0,0"
     fill="#893a31"
     id="path32-2"
     style="stroke-width:0.999998;fill:#980002;fill-opacity:1" />
  <path
     d="m 207.48277,273.09558 c -1.08666,-3.99954 1.27542,-8.11842 5.27118,-9.20405 l 9.65017,-2.62191 c 3.99576,-1.08563 8.11739,1.27165 9.20405,5.27119 1.08665,3.99954 -1.27542,8.11842 -5.27119,9.20405 l -9.65016,2.62191 c -3.99577,1.08563 -8.1174,-1.27165 -9.20405,-5.27119 z m 0,0"
     fill="#893a31"
     id="path32-2-2"
     style="fill:#980002;fill-opacity:1;stroke-width:0.999998" />
  <path
     d="m 222.7555,276.00467 c -1.08666,-3.99954 1.27542,-8.11842 5.27118,-9.20405 l 9.65017,-2.62191 c 3.99576,-1.08563 8.11739,1.27165 9.20405,5.27119 1.08665,3.99954 -1.27542,8.11842 -5.27119,9.20405 l -9.65016,2.62191 c -3.99577,1.08563 -8.1174,-1.27165 -9.20405,-5.27119 z m 0,0"
     fill="#893a31"
     id="path32-2-7"
     style="fill:#980002;fill-opacity:1;stroke-width:0.999998" />
  <path
     d="m 211.11913,287.64103 c -1.08666,-3.99954 1.27542,-8.11842 5.27118,-9.20405 l 9.65017,-2.62191 c 3.99576,-1.08563 8.11739,1.27165 9.20405,5.27119 1.08665,3.99954 -1.27542,8.11842 -5.27119,9.20405 l -9.65016,2.62191 c -3.99577,1.08563 -8.1174,-1.27165 -9.20405,-5.27119 z m 0,0"
     fill="#893a31"
     id="path32-2-3"
     style="fill:#980002;fill-opacity:1;stroke-width:0.999998" />
  <path
     d="m 204.57368,260.00467 c -1.08666,-3.99954 1.27542,-8.11842 5.27118,-9.20405 l 9.65017,-2.62191 c 3.99576,-1.08563 8.11739,1.27165 9.20405,5.27119 1.08665,3.99954 -1.27542,8.11842 -5.27119,9.20405 l -9.65016,2.62191 c -3.99577,1.08563 -8.1174,-1.27165 -9.20405,-5.27119 z m 0,0"
     fill="#893a31"
     id="path32-2-79"
     style="fill:#980002;fill-opacity:1;stroke-width:0.999998" />
  <path
     d="m 198.02822,278.91376 c -1.08666,-3.99954 1.27542,-8.11842 5.27118,-9.20405 l 9.65017,-2.62191 c 3.99576,-1.08563 8.11739,1.27165 9.20405,5.27119 1.08665,3.99954 -1.27542,8.11842 -5.27119,9.20405 l -9.65016,2.62191 c -3.99577,1.08563 -8.1174,-1.27165 -9.20405,-5.27119 z m 0,0"
     fill="#893a31"
     id="path32-2-0"
     style="fill:#980002;fill-opacity:1;stroke-width:0.999998" />
  <path
     d="m 136.76566,203.16666 -14.68789,-11.35648 -23.033985,3.06607 14.683675,11.35678 z"
     fill="#f3ce7d"
     id="path10-2"
     style="stroke-width:0.422541" />
  <path
     d="m 153.14176,215.83329 -16.37612,-12.6666 -23.0382,3.06637 16.38032,12.66629 z"
     fill="#eb7288"
     id="path12-7"
     style="stroke-width:0.422541" />
  <path
     d="m 168.29554,227.55131 -15.15378,-11.71802 -23.03402,3.06608 15.14877,11.71415 z"
     fill="#bad79d"
     id="path14-0"
     style="stroke-width:0.422541" />
  <path
     d="m 153.14176,215.83329 15.15378,11.71802 0.31541,-0.0439 -3.09495,-23.56559 -15.14959,-11.71833 3.09494,23.56561 z"
     fill="#9cb284"
     id="path16-3"
     style="stroke-width:0.422541" />
  <path
     d="m 136.76566,203.16666 16.37612,12.6666 0.31958,-0.0442 -3.09494,-23.5656 -16.38031,-12.6663 3.09495,23.56561 z"
     fill="#c15b71"
     id="path18-9"
     style="stroke-width:0.422541" />
  <path
     d="m 137.08108,203.12274 -3.09496,-23.5656 -14.68368,-11.35678 3.09492,23.5656 -0.31959,0.0442 14.68789,11.35649 z"
     fill="#c9a96b"
     id="path20-9"
     style="stroke-width:0.422541" />
  <rect
     style="fill:#ccd3df;fill-opacity:1;stroke-width:0.707971"
     id="rect1026"
     width="127.14247"
     height="8.0959015"
     x="218.96393"
     y="76.996338"
     transform="matrix(0.7985933,0.60187104,-0.69084254,0.72300524,0,0)" />
  <rect
     style="fill:#ff0000;fill-opacity:1;stroke-width:0.75"
     id="rect1028"
     width="16.456305"
     height="3.085557"
     x="-37.463604"
     y="344.13217"
     transform="rotate(-44.388323)" />
</svg>
