<svg height="512pt" viewBox="-91 0 512 512.00008" width="512pt" xmlns="http://www.w3.org/2000/svg"><path d="m195 302.164062h-15v107.335938l15 50zm0 0" fill="#f69b65"/><path d="m234.871094 497.382812-17.371094-5.789062v-82.09375h-37.5v80c0 3.226562 2.066406 6.09375 5.128906 7.113281l44.996094 15c3.929688 1.308594 8.179688-.8125 9.488281-4.746093 1.308594-3.925782-.8125-8.175782-4.742187-9.484376zm0 0" fill="#967151"/><path d="m120 302.164062h15v107.335938l-15 50zm0 0" fill="#f9b589"/><path d="m80.132812 497.382812 17.367188-5.789062v-82.09375h37.5v80c0 3.226562-2.066406 6.09375-5.128906 7.113281l-44.996094 15c-3.929688 1.308594-8.179688-.8125-9.488281-4.746093-1.308594-3.925782.8125-8.175782 4.746093-9.484376zm0 0" fill="#cb9851"/><path d="m136.25 447h-40c-4.140625 0-7.5-3.359375-7.5-7.5 0-4.144531 3.359375-7.5 7.5-7.5h40c4.144531 0 7.5 3.355469 7.5 7.5 0 4.140625-3.355469 7.5-7.5 7.5zm0 0" fill="#a15538"/><path d="m218.75 447h-40c-4.144531 0-7.5-3.359375-7.5-7.5 0-4.144531 3.355469-7.5 7.5-7.5h40c4.144531 0 7.5 3.355469 7.5 7.5 0 4.140625-3.355469 7.5-7.5 7.5zm0 0" fill="#893a31"/><path d="m22.5 185c-4.136719 0-7.5-3.363281-7.5-7.5h-15c0 12.40625 10.09375 22.5 22.5 22.5h135v-15zm0 0" fill="#cb9851"/><path d="m322.5 95c-4.144531 0-7.5 3.359375-7.5 7.5 0 45.492188-37.011719 82.5-82.5 82.5h-75v15h75c53.761719 0 97.5-43.738281 97.5-97.5 0-4.140625-3.355469-7.5-7.5-7.5zm0 0" fill="#967151"/><path d="m172.5 228.898438v150.601562h30c8.25 0 15-6.75 15-15v-135.601562zm0 0" fill="#893a31"/><path d="m187.5 364.5v-135.601562h-90v135.601562c0 8.25 6.75 15 15 15h60c8.25 0 15-6.75 15-15zm0 0" fill="#a15538"/><path d="m157.5 332c-4.144531 0-7.5-3.359375-7.5-7.5v-10c0-4.140625 3.355469-7.5 7.5-7.5s7.5 3.359375 7.5 7.5v10c0 4.140625-3.355469 7.5-7.5 7.5zm0 0" fill="#893a31"/><path d="m127.5 357c-4.144531 0-7.5-3.359375-7.5-7.5v-10c0-4.140625 3.355469-7.5 7.5-7.5s7.5 3.359375 7.5 7.5v10c0 4.140625-3.355469 7.5-7.5 7.5zm0 0" fill="#893a31"/><path d="m187.5 357c-4.144531 0-7.5-3.359375-7.5-7.5v-10c0-4.140625 3.355469-7.5 7.5-7.5s7.5 3.359375 7.5 7.5v10c0 4.140625-3.355469 7.5-7.5 7.5zm0 0" fill="#762916"/><path d="m157.5 22.5v180l30-30c24.851562 0 44.980469-20.144531 44.980469-45v-30c0-41.355469-33.644531-75-74.980469-75zm0 0" fill="#f9d4a0"/><path d="m202.480469 127.5v-30c0-41.355469-20.183594-75-44.980469-75-41.332031 0-74.960938 33.644531-74.960938 75l-.039062 30c0 24.855469 20.148438 45 45 45l30 30v-30c24.851562 0 44.980469-20.144531 44.980469-45zm0 0" fill="#ffebcf"/><path d="m212.5 172.5h-30l20 95.003906c10.855469-5.089844 21.027344-12.117187 30-21.089844v-53.914062c0-11-9-20-20-20zm0 0" fill="#967151"/><path d="m182.5 172.5h-80c-11 0-20 9-20 20v53.914062c32.484375 32.484376 80.703125 39.511719 120 21.089844v-75.003906c0-11-9-20-20-20zm0 0" fill="#cb9851"/><path d="m157.5 52.5v101l45-46v-10c0-24.851562-20.148438-45-45-45zm0 0" fill="#f69b65"/><path d="m157.5 52.5c-24.851562 0-45 20.148438-45 45v10l60 46v-56c0-24.851562-6.714844-45-15-45zm0 0" fill="#f9b589"/><path d="m176.210938 107.5c-1.054688-1.570312-2.304688-3-3.710938-4.261719l-15 69.261719c24.851562 0 45-20.144531 45-45v-20zm0 0" fill="#7c5d51"/><path d="m172.5 127.5v-24.261719c-3.980469-3.5625-9.234375-5.738281-15-5.738281-7.800781 0-14.671875 3.972656-18.707031 10h-26.292969v20c0 24.855469 20.148438 45 45 45 8.285156 0 15-20.144531 15-45zm0 0" fill="#967151"/><path d="m44.980469 7.5c0-3.035156-1.824219-5.769531-4.628907-6.929688-2.804687-1.160156-6.027343-.5195308-8.171874 1.625l-15 15c-2.929688 2.929688-2.929688 7.679688 0 10.609376 2.929687 2.925781 7.675781 2.925781 10.605468 0l2.195313-2.199219v8.789062l-12.804688 12.800781c-2.929687 2.929688-2.929687 7.679688 0 10.609376 1.464844 1.460937 3.386719 2.195312 5.304688 2.195312s3.839843-.730469 5.304687-2.195312l2.195313-2.199219v8.789062l-12.804688 12.800781c-2.929687 2.929688-2.929687 7.679688 0 10.609376 1.464844 1.460937 3.386719 2.195312 5.304688 2.195312s3.839843-.730469 5.304687-2.195312l2.195313-2.199219v8.789062l-12.804688 12.800781c-2.929687 2.929688-2.929687 7.679688 0 10.609376 1.464844 1.460937 3.386719 2.195312 5.304688 2.195312s3.839843-.730469 5.304687-2.195312l2.195313-2.199219v263.894531c0 4.140625 3.359375 7.5 7.5 7.5 4.144531 0 7.5-3.359375 7.5-7.5zm0 0" fill="#f9d4a0"/><path d="m7.5 185c-4.144531 0-7.5-3.359375-7.5-7.5 0-12.40625 10.09375-22.5 22.5-22.5h15c4.140625 0 7.5 3.355469 7.5 7.5s-3.355469 7.5-7.5 7.5h-15c-4.136719 0-7.5 3.363281-7.5 7.5 0 4.144531-3.355469 7.5-7.5 7.5zm0 0" fill="#cb9851"/></svg>