<?xml version="1.0" standalone="no"?>
<!DOCTYPE svg PUBLIC "-//W3C//DTD SVG 1.1//EN" "http://www.w3.org/Graphics/SVG/1.1/DTD/svg11.dtd">
<svg xmlns="http://www.w3.org/2000/svg">
<defs >
<font id="Grenze" horiz-adv-x="502" ><font-face
    font-family="Grenze"
    units-per-em="1000"
    panose-1="2 14 8 4 6 4 3 5 4 4"
    ascent="1100"
    descent="-380"
    alphabetic="0" />
<glyph unicode=" " glyph-name="space" horiz-adv-x="164" />
<glyph unicode="!" glyph-name="exclam" horiz-adv-x="297" d="M118 188T109 194T100 204L76 624Q176 643 194 643Q198 643 209 633T221 618L196 198Q136 188 121 188Q118 188 109 194ZM103 -6T92 6T81 24L89 121H208L216 3Q149 -6 108 -6Q103 -6 92 6Z" />
<glyph unicode="&quot;" glyph-name="quotedbl" horiz-adv-x="361" d="M29 680Q87 692 127 692Q133 692 145 681T156 665Q145 571 129 485L50 484L29 680ZM204 680Q262 692 302 692Q308 692 320 681T332 665Q317 556 304 485L225 484L204 680Z" />
<glyph unicode="#" glyph-name="numbersign" horiz-adv-x="551" d="M407 290L393 196H489L478 107H380L361 -18H280L298 107H208L190 -18H109L127 107H28L40 196H140L154 290H58L69 379H167L184 497H266L249 379H338L355 497H438L420 379H518L507 290H407ZM325
290H235L222 196H311L325 290Z" />
<glyph unicode="$" glyph-name="dollar" horiz-adv-x="520" d="M313 326Q362 301 393 281T447 234T470 172Q470 143 465 118Q446 83 397 45T307 -7V-114H221V-10Q147 -5 125 -3Q74 1 59 2L65 181H140L158 89Q196 82 235 77T296 72Q305 72 314 93T324 131Q324 154
296 173T203 225Q134 261 98 298T61 384Q61 411 66 433Q81 463 132 505T222 562V670H308V564Q361 560 448 549L438 379H364L353 468Q255 486 225 486Q215 486 207 470T199 434Q199 406 218 387T282 343L313 326Z" />
<glyph unicode="%" glyph-name="percent" horiz-adv-x="891" d="M544 611H636L348 -9H256L544 611ZM151 285T116 323T80 443Q81 515 118 559T233 604Q313 604 348 566T384 449Q384 377 346 331T232 285Q151 285 116 323ZM252 348T283 367Q288 412 288 451Q288
500 278 520T239 540Q212 540 179 521Q174 481 174 445Q174 393 185 371T225 348Q252 348 283 367ZM580 -4T544 34T508 151Q508 225 545 270T661 315Q741 315 776 277T812 160Q812 88 774 42T660 -4Q580 -4 544 34ZM679 60T710 79Q716 120 716 163Q716 211 706
231T667 252Q640 252 607 233Q602 193 602 157Q602 105 613 83T653 60Q679 60 710 79Z" />
<glyph unicode="&amp;" glyph-name="ampersand" horiz-adv-x="610" d="M601 60V0H440Q430 3 375 63L361 43Q335 27 289 9T226 -9Q137 -9 81 32T24 159Q24 215 56 260T141 338Q115 373 102 410T88 480Q88 494 90 509T98 532Q120 554 177 586T252 619Q319 619 361
597T404 528Q404 498 389 429H313L309 513Q307 556 237 556Q228 555 223 544T217 516Q217 489 228 460T259 405Q320 323 399 233L433 294L380 309L381 364H590L589 301L535 290L481 212L454 173Q504 118 554 73L601 60ZM293 70T327 117Q262 192 192 276Q166 232
166 176Q166 123 189 92T247 60Q266 60 282 66Q293 70 327 117Z" />
<glyph unicode="&apos;" glyph-name="quotesingle" horiz-adv-x="186" d="M29 680Q87 692 127 692Q133 692 145 681T156 665Q145 571 129 485L50 484L29 680Z" />
<glyph unicode="(" glyph-name="parenleft" horiz-adv-x="277" d="M122 -46T76 58T30 288Q30 413 76 516T196 686L253 648Q213 579 191 484T168 290Q168 189 190 91T253 -80L196 -118Q122 -46 76 58Z" />
<glyph unicode=")" glyph-name="parenright" horiz-adv-x="277" d="M24 -80Q64 -11 86 83T108 278Q108 380 86 477T24 648L80 686Q155 614 201 510T247 280Q247 155 201 52T80 -118L24 -80Z" />
<glyph unicode="*" glyph-name="asterisk" horiz-adv-x="327" d="M122 396L140 482L75 426L50 430L18 500L110 533L19 566L47 636L72 640L140 583L121 683L197 689L214 671L196 583L261 638L286 634L320 565L224 533L316 498L287 429L261 426L196 483L215 384L138
377L122 396Z" />
<glyph unicode="+" glyph-name="plus" horiz-adv-x="608" d="M514 210H354V30H255V210H94V298H255V477H354V298H514V210Z" />
<glyph unicode="," glyph-name="comma" horiz-adv-x="238" d="M46 -116Q71 -51 81 -5Q78 -2 65 8T53 25L58 115Q121 128 158 128Q164 128 179 112T194 88V37Q194 1 167 -48T102 -145L46 -116Z" />
<glyph unicode="-" glyph-name="hyphen" horiz-adv-x="317" d="M34 292H282V196H34V292Z" />
<glyph unicode="." glyph-name="period" horiz-adv-x="225" d="M75 -13T59 3T43 28L40 111Q64 117 97 122T146 128Q152 128 168 111T185 86L177 0Q158 -4 128 -8T81 -13Q75 -13 59 3Z" />
<glyph unicode="/" glyph-name="slash" horiz-adv-x="384" d="M242 687H345L142 -118H39L242 687Z" />
<glyph unicode="0" glyph-name="zero" horiz-adv-x="523" d="M148 -11T93 53T37 239Q37 301 59 357T131 449T260 485Q374 485 430 422T486 239Q486 176 464 120T391 26T262 -11Q148 -11 93 53ZM282 61T325 85Q336 129 336 239Q336 332 322 371T278 411Q257 411
236 405T197 387Q190 364 189 331T187 239Q187 143 199 102T242 61Q282 61 325 85Z" />
<glyph unicode="1" glyph-name="one" horiz-adv-x="385" d="M50 57L142 81V373L42 363V430L220 485L279 464V81L360 57V0H50V57Z" />
<glyph unicode="2" glyph-name="two" horiz-adv-x="458" d="M25 59L183 250Q213 288 226 312T239 360Q239 377 233 393T217 409Q210 409 183 404T139 395L129 312H59L52 464Q92 471 164 478T257 485Q314 485 355 458T396 374Q396 340 382 308T341 241L228 101V90H336L347
161H417L421 0H35L25 59Z" />
<glyph unicode="3" glyph-name="three" horiz-adv-x="424" d="M56 -30Q131 -13 186 27T241 122Q241 149 230 167T204 186H105V245Q171 261 198 287T225 361Q225 378 219 393T204 409Q197 409 163 403T122 395L112 324H43L36 464Q75 471 131 478T206 485Q278 485
321 457T364 369Q364 341 348 316T309 273T268 251V244Q330 237 360 209T390 130Q390 78 341 29T215 -55T56 -99V-30Z" />
<glyph unicode="4" glyph-name="four" horiz-adv-x="499" d="M274 38H22L16 99Q116 343 168 488L292 439V408Q275 373 223 279T140 134L141 123H274V231L375 268L403 256V123H465V38H403V-97H274V38Z" />
<glyph unicode="5" glyph-name="five" horiz-adv-x="415" d="M46 -30Q105 -15 145 2T210 49T236 128Q236 168 216 186T166 205Q158 205 65 174L38 207L65 475H263L271 525H343L346 385H147L136 263Q154 271 182 281T217 292Q297 292 338 254T379 151Q379 82 333
28T210 -58T46 -99V-30Z" />
<glyph unicode="6" glyph-name="six" horiz-adv-x="475" d="M158 -11T98 50T37 219Q37 324 85 399T213 517T384 570V501Q220 462 186 319L191 317Q263 356 270 356Q360 356 399 304T439 178Q439 160 436 137T428 98Q396 58 343 24T259 -11Q158 -11 98 50ZM279
63T287 93T295 175Q295 228 282 249T246 271Q238 270 221 265T183 252Q181 212 181 194Q181 130 199 97T266 63Q279 63 287 93Z" />
<glyph unicode="7" glyph-name="seven" horiz-adv-x="449" d="M175 -105T137 -89T70 -59L300 373L298 385H120L109 308H40L32 475H414L426 414L216 -89Q210 -95 200 -100T183 -105Q175 -105 137 -89Z" />
<glyph unicode="8" glyph-name="eight" horiz-adv-x="472" d="M138 -12T88 33T38 140Q38 183 58 214T125 276V283Q90 309 71 339T51 409Q51 444 57 461Q66 475 99 502T170 550T233 571Q290 571 332 553T398 505T421 436Q421 390 401 358T346 298V292Q387 265 410
233T434 154Q434 121 425 98Q415 83 382 56T312 9T249 -12Q138 -12 88 33ZM297 381T297 411Q297 450 280 473T214 496Q205 496 197 480T189 439Q189 402 212 380T283 332Q297 381 297 411ZM278 63T287 82T296 128Q296 151 281 169T246 201T182 240Q162 200 162
169Q162 124 184 94T271 63Q278 63 287 82Z" />
<glyph unicode="9" glyph-name="nine" horiz-adv-x="475" d="M89 -29Q174 -9 224 38T289 155L285 157Q279 154 248 136T209 118Q119 118 78 172T36 300Q36 318 39 340T48 376Q80 416 132 450T216 485Q318 485 378 424T438 255Q438 150 390 74T262 -45T89 -98V-29ZM240
203T293 222Q295 260 295 277Q295 341 277 375T209 410Q195 410 188 381T181 307Q181 251 195 227T233 203Q240 203 293 222Z" />
<glyph unicode=":" glyph-name="colon" horiz-adv-x="225" d="M75 -13T59 3T43 28L40 111Q64 117 97 122T146 128Q152 128 168 111T185 86L177 0Q158 -4 128 -8T81 -13Q75 -13 59 3ZM75 334T59 350T43 375L40 458Q64 464 97 469T146 475Q152 475 168 458T185 433L177
347Q158 343 128 339T81 334Q75 334 59 350Z" />
<glyph unicode=";" glyph-name="semicolon" horiz-adv-x="225" d="M75 334T59 350T43 375L40 458Q64 464 97 469T146 475Q152 475 168 458T185 433L177 347Q158 343 128 339T81 334Q75 334 59 350ZM296 -116Q321 -51 331 -5Q328 -2 315 8T303 25L308 115Q371 128
408 128Q414 128 429 112T444 88V37Q444 1 417 -48T352 -145L296 -116Z" />
<glyph unicode="&lt;" glyph-name="less" horiz-adv-x="574" d="M79 172V300L495 479V371L164 236L495 101V-6L79 172Z" />
<glyph unicode="=" glyph-name="equal" horiz-adv-x="584" d="M94 382H489V294H94V382ZM94 200H489V113H94V200Z" />
<glyph unicode="&gt;" glyph-name="greater" horiz-adv-x="574" d="M79 101L409 236L79 371V479L495 300V172L79 -6V101Z" />
<glyph unicode="?" glyph-name="question" horiz-adv-x="474" d="M349 639T389 608T430 503Q430 466 416 436T380 383T321 327L297 306Q268 279 256 253T242 178Q182 168 168 168Q164 168 155 175T146 185L143 264Q141 303 161 331T222 396Q266 435 283 461T301
515Q301 533 295 548T273 563Q251 563 169 543L153 442H79L72 615Q194 639 269 639Q349 639 389 608ZM247 118L257 -3Q204 -9 158 -9Q153 -9 140 4T128 23L142 118H247Z" />
<glyph unicode="@" glyph-name="at" horiz-adv-x="898" d="M284 -207T203 -157T76 -13T30 211Q30 349 82 456T232 624T465 684Q662 684 765 597T868 345Q868 278 850 209T805 87T756 12Q707 4 634 -3T540 -11Q535 -11 519 5T503 27V56Q415 -11 409 -11Q332 -11
286 46T239 204Q239 248 246 292T265 361Q284 385 350 426T438 468Q449 468 525 457T635 439V81L703 70Q722 129 732 192T743 310Q743 455 675 528T467 601Q410 601 351 585T246 541Q210 504 184 406T158 216Q158 48 223 -42T445 -133Q467 -133 521 -129L531 -189Q455
-207 387 -207Q284 -207 203 -157ZM441 87T497 116V370Q484 374 464 383Q423 401 416 400Q404 397 395 349T386 218Q386 161 400 124T433 87Q441 87 497 116Z" />
<glyph unicode="A" glyph-name="A" horiz-adv-x="626" d="M-1 57L61 77L226 602Q266 608 312 612T379 619Q382 619 399 608L567 77L629 57V0H342V64L410 82L382 184H212L188 82L258 64V0H-1V57ZM361 261L302 493H291L232 261H361Z" />
<glyph unicode="B" glyph-name="B" horiz-adv-x="559" d="M29 57L90 80V528L29 551V608H352Q430 608 468 574T506 453Q506 412 491 386T458 347T414 321V315Q470 305 504 268T538 174Q538 80 489 40T356 0H29V57ZM287 343Q324 343 340 361T356 432Q356 488 347
513T313 537L239 527V343H287ZM360 69T373 95T386 186Q386 221 378 238T355 259T313 264H239V82L330 71Q360 69 373 95Z" />
<glyph unicode="C" glyph-name="C" horiz-adv-x="479" d="M144 -11T86 61T27 283Q27 346 36 399T59 489Q79 514 121 545T207 597T269 619Q283 619 342 613T451 601L439 403H365L351 519Q329 525 298 529T248 534Q230 534 221 529Q204 519 194 459T183 310Q183
185 212 136T300 86H352L370 210H442L446 14Q415 7 342 -2T253 -11Q144 -11 86 61Z" />
<glyph unicode="D" glyph-name="D" horiz-adv-x="597" d="M29 57L90 80V528L29 551V608H359Q414 608 461 580T539 488T570 320Q570 157 515 79T359 0H29V57ZM374 72T395 136T416 312Q416 407 395 472T337 537L239 527V83L337 72Q374 72 395 136Z" />
<glyph unicode="E" glyph-name="E" horiz-adv-x="523" d="M29 57L90 80V528L29 551V608H490L477 422H403L391 537L239 523V355L378 350V276L239 270V87L400 71L417 190H491L495 0H29V57Z" />
<glyph unicode="F" glyph-name="F" horiz-adv-x="487" d="M29 57L90 80V528L29 551V608H471L458 416H384L372 537L239 523V337L386 332V258L239 252V88L339 61V0H29V57Z" />
<glyph unicode="G" glyph-name="G" horiz-adv-x="571" d="M164 -11T96 61T27 283Q27 346 36 399T59 489Q79 514 121 545T207 597T269 619Q288 619 370 613T492 600L480 410H404L392 517Q365 522 318 528T248 534Q230 534 221 529Q204 519 194 459T183 310Q183
222 194 172T229 102T289 81L377 89V225L284 242V305H560V247L503 234V54Q482 41 395 15T292 -11Q164 -11 96 61Z" />
<glyph unicode="H" glyph-name="H" horiz-adv-x="662" d="M29 57L90 80V528L29 551V608H299V544L237 520V350H425V520L364 544V608H633V551L572 528V80L633 57V0H364V67L425 88V273H237V88L299 67V0H29V57Z" />
<glyph unicode="I" glyph-name="I" horiz-adv-x="338" d="M30 57L94 80V528L29 551V608H308V549L243 526V82L308 60V0H30V57Z" />
<glyph unicode="J" glyph-name="J" horiz-adv-x="326" d="M63 -140T4 -127Q-29 -120 -51 -116V-46Q42 -46 57 -43Q89 -38 89 70V528L24 551V608H303V551L238 528V49Q238 15 208 -29T138 -107T81 -140Q63 -140 4 -127Z" />
<glyph unicode="K" glyph-name="K" horiz-adv-x="613" d="M29 57L90 80V528L29 551V608H297V544L237 520V88L299 67V0H29V57ZM402 52T402 52Q316 188 260 281V327L405 524L344 544V608H604V551L545 531L390 328Q420 284 480 200T568 80L622 59V0H434Q402 52 402 52Z" />
<glyph unicode="L" glyph-name="L" horiz-adv-x="496" d="M29 57L90 80V528L29 551V608H312V549L239 526V87L389 71L409 202H483L487 0H29V57Z" />
<glyph unicode="M" glyph-name="M" horiz-adv-x="827" d="M24 57L85 80L104 528L43 551V608H290L408 198H421L539 608H788V551L727 528L746 80L807 57V0H529V64L598 87L590 416H582Q576 389 563 343T540 263L465 41Q442 37 408 32T356 25Q352 25 335 36L260 263Q243
313 218 416H209L200 87L268 64V0H24V57Z" />
<glyph unicode="N" glyph-name="N" horiz-adv-x="638" d="M405 -10T388 0L275 237Q240 305 205 414H196L206 123V87L274 64V0H29V57L90 80V528L29 551V608H261L391 330Q413 285 445 180H454L445 488V521L377 544V608H621V551L560 528V6Q530 3 481 -2T408 -10Q405
-10 388 0Z" />
<glyph unicode="O" glyph-name="O" horiz-adv-x="584" d="M169 -11T98 60T27 285Q27 348 36 400T59 489Q79 514 121 545T207 597T269 619Q415 619 486 548T557 321Q557 209 527 113Q507 90 463 61T376 10T314 -11Q169 -11 98 60ZM317 68T349 80T385 97Q400 180
400 303Q400 425 376 482T284 539Q239 539 221 530Q204 521 194 460T183 306Q183 214 194 163T232 90T307 68Q317 68 349 80Z" />
<glyph unicode="P" glyph-name="P" horiz-adv-x="548" d="M29 57L90 80V528L29 551V608H365Q443 608 484 565T526 423Q526 313 473 263T336 212H239V87L333 61V0H29V57ZM303 294Q334 294 349 300T374 329T383 401Q383 465 369 499T326 533L239 524V294H303Z" />
<glyph unicode="Q" glyph-name="Q" horiz-adv-x="584" d="M506 89T461 59T373 9L556 -49L517 -146H457L232 -4Q129 14 78 84T27 285Q27 348 36 400T59 489Q79 514 121 545T207 597T269 619Q415 619 486 548T557 321Q557 209 527 113Q506 89 461 59ZM183 214T194
163T232 90T307 68Q317 68 349 80T385 97Q400 180 400 303Q400 425 376 482T284 539Q239 539 221 530Q204 521 194 460T183 306Q183 214 194 163Z" />
<glyph unicode="R" glyph-name="R" horiz-adv-x="584" d="M29 57L90 80V528L29 551V608H356Q436 608 476 569T517 439Q517 373 490 330T417 267V261L488 143L526 80L580 59V0H397L288 246H239V87L302 62V0H29V57ZM292 326Q319 326 334 332T358 357T366 417Q366
533 315 533L239 524V326H292Z" />
<glyph unicode="S" glyph-name="S" horiz-adv-x="454" d="M195 -11T79 -1L28 3L35 195H110L129 90Q233 74 265 74Q270 74 281 93T292 130Q291 165 265 189T185 245Q136 274 106 296T55 354T33 436Q33 462 38 486Q50 509 87 540T165 595T224 619Q241 619 303 613T419
598L411 419H336L322 515Q217 533 193 533Q184 533 178 518T172 479Q172 443 196 417T267 363L288 351Q337 322 366 301T416 247T437 172Q437 145 431 121Q417 94 381 63T306 11T245 -11Q195 -11 79 -1Z" />
<glyph unicode="T" glyph-name="T" horiz-adv-x="542" d="M121 57L196 80V529L108 521L96 403H22L9 608H533L520 403H446L434 521L346 529V82L423 60V0H121V57Z" />
<glyph unicode="U" glyph-name="U" horiz-adv-x="641" d="M164 -11T123 37T82 190V528L21 551V608H287V544L229 520V219Q229 154 244 134T288 113Q310 113 353 124T403 138V520L345 544V608H611V551L550 528V80L611 57V0H430L408 60Q269 -11 260 -11Q164 -11 123 37Z" />
<glyph unicode="V" glyph-name="V" horiz-adv-x="609" d="M237 -10T220 0L70 531L8 551V608H290V544L226 526L281 300Q293 251 317 137H328L337 176Q342 198 372 327T415 526L350 544V608H604V551L542 531L393 6Q364 3 315 -2T241 -10Q237 -10 220 0Z" />
<glyph unicode="W" glyph-name="W" horiz-adv-x="908" d="M222 -10T205 0L70 531L8 551V608H279V544L226 526L273 300L303 137H313L322 168Q380 361 406 456L387 531L335 552V608H600V543L538 526L584 300L618 137H628Q646 212 674 336T716 526L656 544V608H904V551L842
531Q831 490 737 159Q708 53 694 6Q664 3 615 -2T541 -10Q538 -10 521 0L458 255H448L378 6Q348 3 299 -2T225 -10Q222 -10 205 0Z" />
<glyph unicode="X" glyph-name="X" horiz-adv-x="617" d="M-4 57L57 80L215 315L72 528L21 551V608H296V544L240 530L324 388H331L403 530L348 544V608H597V551L536 528L400 324L569 80L625 57V0H326V67L393 84L293 248H285L194 84L260 67V0H-4V57Z" />
<glyph unicode="Y" glyph-name="Y" horiz-adv-x="563" d="M143 57L208 80V235L57 531L-5 551V608H265V544L209 526Q263 399 292 336H302Q322 379 384 526L325 544V608H568V551L506 531Q458 432 357 237V80L422 57V0H143V57Z" />
<glyph unicode="Z" glyph-name="Z" horiz-adv-x="499" d="M25 57L279 523L135 537L124 422H49L36 608H457V551L206 87L379 71L396 198H469L480 0H25V57Z" />
<glyph unicode="[" glyph-name="bracketleft" horiz-adv-x="274" d="M54 -108V676L241 686L247 628L174 610V-36L247 -55L241 -118L54 -108Z" />
<glyph unicode="\" glyph-name="backslash" horiz-adv-x="329" d="M10 687H116L319 -118H213L10 687Z" />
<glyph unicode="]" glyph-name="bracketright" horiz-adv-x="274" d="M27 -60L100 -42V604L27 623L33 686L220 676V-108L33 -118L27 -60Z" />
<glyph unicode="^" glyph-name="asciicircum" horiz-adv-x="533" d="M44 280L207 603H325L488 280L405 240L266 514L127 240L44 280Z" />
<glyph unicode="_" glyph-name="underscore" horiz-adv-x="445" d="M19 -73H426V-161H19V-73Z" />
<glyph unicode="`" glyph-name="grave" horiz-adv-x="213" d="M4 602L0 643L72 710L213 563L175 517L4 602Z" />
<glyph unicode="a" glyph-name="a" horiz-adv-x="482" d="M120 -11T74 46T28 207Q28 251 35 294T53 361Q72 385 139 426T227 468Q237 468 313 456T424 439V79L464 64V9Q342 -11 329 -11Q324 -11 308 5T291 27V56Q206 -11 198 -11Q120 -11 74 46ZM228 87T286 116V370Q266
381 243 390T208 400Q192 400 184 357T175 218Q175 161 189 124T222 87Q228 87 286 116Z" />
<glyph unicode="b" glyph-name="b" horiz-adv-x="475" d="M237 -11T160 1T51 21V566L11 581V636Q33 640 87 648T151 656Q156 656 172 640T189 618L181 406L188 404Q195 409 233 438T277 468Q354 468 400 410T447 247Q447 202 440 161T421 95Q402 72 335 31T247
-11Q237 -11 160 1ZM300 71T300 233Q300 272 293 303T275 352T253 370Q247 370 189 341V86Q212 73 237 64T272 58Q300 71 300 233Z" />
<glyph unicode="c" glyph-name="c" horiz-adv-x="376" d="M120 -11T74 46T28 204Q28 249 35 292T53 359Q65 375 101 401T175 447T225 468Q251 468 287 462T353 446L350 299H271L254 377Q226 392 208 392Q200 392 196 388Q185 379 179 335T172 227Q172 164 190
128T240 91H353V33Q228 -11 196 -11Q120 -11 74 46Z" />
<glyph unicode="d" glyph-name="d" horiz-adv-x="483" d="M121 -11T75 46T28 204Q28 250 35 293T53 362Q72 386 139 427T227 468Q237 468 288 461V567L248 582V637Q379 657 392 657Q397 657 413 641T430 618L424 434V79L464 64V9Q342 -11 329 -11Q324 -11 308
5T291 27V56Q284 51 244 20T198 -11Q121 -11 75 46ZM229 87T286 116V370Q226 400 208 400Q175 400 175 218Q175 161 189 124T222 87Q229 87 286 116Z" />
<glyph unicode="e" glyph-name="e" horiz-adv-x="429" d="M131 -12T80 45T28 204Q28 250 35 293T53 361Q65 376 102 402T177 449T229 470Q288 470 326 449T385 376T406 230L170 210Q170 151 192 119T243 87L390 94V36Q351 23 292 6T217 -12Q131 -12 80 45ZM271
285Q271 334 261 364T228 399Q223 400 209 400Q199 400 196 399Q188 396 180 359T170 271L271 285Z" />
<glyph unicode="f" glyph-name="f" horiz-adv-x="300" d="M100 -11T80 6T60 28V384H7V442L60 461V500Q60 520 89 558T154 626T209 657Q228 657 263 655T332 650Q338 646 345 631T353 609Q353 605 341 577T323 537Q228 575 213 575Q208 575 203 561T198 527V456H301V383H198V84L256
64V12Q117 -11 105 -11Q100 -11 80 6Z" />
<glyph unicode="g" glyph-name="g" horiz-adv-x="452" d="M186 -184T117 -174T16 -156L25 -72L148 38Q96 48 62 98T28 227Q28 261 35 300T52 362Q71 385 133 426T215 468Q227 468 408 435V-22Q408 -53 374 -91T294 -156T221 -184Q186 -184 117 -174ZM230 108T273
139V371Q269 372 263 375T250 381Q209 404 201 400Q172 387 172 241Q172 199 179 169T198 124T222 108Q230 108 273 139ZM262 -122T269 -83T277 3V50L271 53L133 -86V-93Q146 -99 191 -110T251 -122Q262 -122 269 -83Z" />
<glyph unicode="h" glyph-name="h" horiz-adv-x="494" d="M90 -11T71 5T52 28V567L12 582V637Q139 657 153 657Q158 657 174 641T190 618L183 405L190 404Q217 425 247 446T282 467Q359 467 397 433T435 314V80L475 65V10Q353 -11 342 -11Q336 -11 317 5T297 28V313Q297
369 256 369Q251 369 229 360T190 342V80L230 65V10Q109 -11 96 -11Q90 -11 71 5Z" />
<glyph unicode="i" glyph-name="i" horiz-adv-x="258" d="M101 -11T81 6T60 30V379L20 393V448Q145 467 158 467Q163 467 180 450T198 427V78L238 65V10Q120 -11 107 -11Q101 -11 81 6ZM52 654L167 660L188 634L179 537H61L52 654Z" />
<glyph unicode="j" glyph-name="j" horiz-adv-x="245" d="M61 650L179 656L200 630L192 533H70L61 650ZM43 -184T-62 -160V-96Q-43 -96 -5 -93T39 -85Q52 -78 57 -49T62 12V379L16 392V448Q146 467 159 467Q164 467 181 450T199 427V-23Q199 -52 174 -90T117 -156T67
-184Q43 -184 -62 -160Z" />
<glyph unicode="k" glyph-name="k" horiz-adv-x="480" d="M91 -11T72 5T53 28V567L12 582V637Q140 657 153 657Q158 657 174 641T190 618V80L227 65V10Q109 -11 97 -11Q91 -11 72 5ZM352 -11T335 1T313 20L208 210V263L316 385L257 393V456L433 465Q438 465 447
440T456 406L318 256L435 80L477 65V10Q367 -11 357 -11Q352 -11 335 1Z" />
<glyph unicode="l" glyph-name="l" horiz-adv-x="249" d="M91 -11T72 5T53 28V567L12 582V637Q140 657 153 657Q158 657 174 641T190 618V80L230 65V10Q109 -11 97 -11Q91 -11 72 5Z" />
<glyph unicode="m" glyph-name="m" horiz-adv-x="725" d="M99 -11T80 5T60 28V377L20 392V447Q143 467 157 467Q162 467 177 451T193 429V401Q218 422 246 444T279 467Q332 467 367 452T419 401Q493 467 500 467Q585 467 625 433T666 313V80L706 65V10Q585 -11
574 -11Q568 -11 548 5T528 28V312Q528 369 485 369Q479 369 432 342V80L469 65V10Q351 -11 340 -11Q334 -11 314 5T294 28V312Q294 369 254 369Q247 369 198 342V80L235 65V10Q117 -11 105 -11Q99 -11 80 5Z" />
<glyph unicode="n" glyph-name="n" d="M99 -11T80 5T60 28V378L20 393V448Q143 467 157 467Q162 467 177 451T193 429V402Q219 422 252 444T290 467Q366 467 404 433T443 314V80L483 65V10Q361 -11 350 -11Q344 -11 325 5T305 28V313Q305 369 264 369Q256 369
198 342V80L238 65V10Q117 -11 105 -11Q99 -11 80 5Z" />
<glyph unicode="o" glyph-name="o" horiz-adv-x="486" d="M28 -11T28 208Q28 251 35 293T53 359Q65 375 103 401T179 449T231 470Q343 470 401 414T459 252Q459 206 452 164T434 95Q415 72 348 31T260 -11Q28 -11 28 208ZM267 61T299 78Q312 156 312 238Q312 309
292 354T227 399Q212 399 201 394Q189 389 182 343T175 222Q175 133 200 97T261 60Q267 61 299 78Z" />
<glyph unicode="p" glyph-name="p" horiz-adv-x="484" d="M87 -184T71 -168T54 -145L60 28V378L20 393V448Q144 468 155 468Q160 468 176 452T193 429V400Q280 468 286 468Q363 468 409 410T456 247Q456 202 449 161T430 95Q411 72 344 31T257 -11Q247 -11 196
-4V-92L238 -107V-164Q216 -169 159 -176T92 -184Q87 -184 71 -168ZM309 57T309 233Q309 273 302 304T284 352T262 370Q256 370 198 341V86Q218 75 240 66T275 57Q309 57 309 233Z" />
<glyph unicode="q" glyph-name="q" horiz-adv-x="475" d="M319 -184T303 -168T286 -145L293 51L287 53Q280 48 242 19T198 -11Q121 -11 75 46T28 204Q28 250 35 293T53 361Q72 385 139 426T227 468Q237 468 313 455T424 436V-94L464 -109V-164Q336 -184 324 -184Q319
-184 303 -168ZM229 87T286 116V370Q263 383 238 392T203 399Q175 387 175 218Q175 180 182 150T200 104T222 87Q229 87 286 116Z" />
<glyph unicode="r" glyph-name="r" horiz-adv-x="358" d="M99 -11T80 5T60 28V379L20 393V448Q141 467 154 467Q159 467 176 450T194 427L193 385Q268 472 276 472Q299 472 348 458Q360 426 360 413Q360 401 341 362T317 321Q315 322 293 332T256 343Q250 343
229 336T198 322V89L262 71V12Q119 -11 105 -11Q99 -11 80 5Z" />
<glyph unicode="s" glyph-name="s" horiz-adv-x="385" d="M210 -11T137 -7T26 2L28 163H95L116 84Q140 76 173 69T220 61Q227 61 234 79T241 107Q241 127 227 139T174 172Q152 183 140 190Q75 227 52 256T28 324Q28 356 35 376Q54 402 97 434T159 467Q197 467
257 465T346 459L343 322H268L261 377Q252 380 211 387T160 395Q152 395 149 387T145 367Q145 351 163 337T199 312T224 298L244 286Q303 253 336 225T370 158Q370 124 362 100Q344 69 302 29T235 -11Q210 -11 137 -7Z" />
<glyph unicode="t" glyph-name="t" horiz-adv-x="328" d="M139 -11T120 6T85 44T70 80V384H0V435L70 463L157 565Q166 568 208 550V456H309V381H208V122Q208 99 213 90T231 81L319 76V8Q271 1 217 -5T150 -11Q139 -11 120 6Z" />
<glyph unicode="u" glyph-name="u" horiz-adv-x="499" d="M135 -11T97 23T59 143V377L19 392V447Q140 467 151 467Q157 467 177 451T197 429V144Q197 87 237 87Q245 87 301 114V377L262 392V447Q383 467 395 467Q401 467 420 451T439 429V79L479 64V9Q356 -11
343 -11Q338 -11 323 5T307 27V55Q280 34 248 12T212 -11Q135 -11 97 23Z" />
<glyph unicode="v" glyph-name="v" horiz-adv-x="442" d="M159 -12T142 -1L42 378L-1 391V448Q119 467 128 467Q134 467 152 453T173 432L221 203L233 117H244L310 386L247 394V456L405 467Q410 467 423 449T436 423L305 6Q170 -12 162 -12Q159 -12 142 -1Z" />
<glyph unicode="w" glyph-name="w" horiz-adv-x="681" d="M146 -12T129 -1L41 378L-2 391V448Q116 467 126 467Q132 467 150 453T171 432L215 203L230 124H240L308 314L286 379L242 391V448Q360 467 370 467Q375 467 394 453T415 432L466 203L484 124H494L550
386L483 394V456L637 467Q642 467 655 449T669 423L557 6Q429 -12 421 -12Q417 -12 402 -1L349 184H341L285 6Q157 -12 149 -12Q146 -12 129 -1Z" />
<glyph unicode="x" glyph-name="x" horiz-adv-x="462" d="M25 -11T18 11T10 41L154 234L61 378L19 389V449Q139 467 148 467Q153 467 165 455T183 433L260 300L312 390L266 395V456L426 467Q431 467 438 445T445 413L309 233L408 81L454 68V8Q337 -11 328 -11Q322
-11 308 2T289 23L204 166L146 70L196 63V0Q40 -11 29 -11Q25 -11 18 11Z" />
<glyph unicode="y" glyph-name="y" horiz-adv-x="443" d="M186 -184T172 -159T159 -128L204 2L162 -4Q159 -4 142 7L43 378L0 391V448Q118 467 128 467Q134 467 153 453T175 432L221 207L233 107H243L312 386L248 394V456L405 467Q410 467 423 449T436 423L305
11L281 -97L330 -115L328 -167Q203 -184 191 -184Q186 -184 172 -159Z" />
<glyph unicode="z" glyph-name="z" horiz-adv-x="410" d="M39 7T31 22T18 47Q83 154 164 297Q185 331 206 369L203 381L116 388L105 320H36L27 456H349Q369 427 375 410Q294 261 196 93V79L301 72L315 158H385L388 0H44Q39 7 31 22Z" />
<glyph unicode="{" glyph-name="braceleft" horiz-adv-x="319" d="M98 -108V184L27 242V319L98 377V677L285 686L291 628L218 610V333L141 282L218 229V-36L291 -55L286 -118L98 -108Z" />
<glyph unicode="|" glyph-name="bar" horiz-adv-x="230" d="M64 676H166V-187H64V676Z" />
<glyph unicode="}" glyph-name="braceright" horiz-adv-x="319" d="M28 -60L101 -42V229L178 282L101 333V604L28 623L33 686L221 676V377L292 319V242L221 184V-109L34 -118L28 -60Z" />
<glyph unicode="~" glyph-name="asciitilde" horiz-adv-x="592" d="M367 259T334 265T256 283Q249 285 223 291T183 297Q170 297 157 288T122 262L79 310Q104 341 139 371T193 401Q220 401 251 395T331 377Q390 361 410 361Q423 361 437 370T469 397L512 349Q489
320 454 290T398 259Q367 259 334 265Z" />
<glyph unicode="&#xa0;" glyph-name="uni00A0" horiz-adv-x="164" />
<glyph unicode="&#xa1;" glyph-name="exclamdown" horiz-adv-x="297" d="M80 453Q141 461 189 461Q194 461 205 449T216 432L208 334H88L80 453ZM99 -188T88 -178T76 -163L101 258Q161 268 175 268Q179 268 188 261T197 251L220 -168Q115 -188 103 -188Q99 -188 88 -178Z" />
<glyph unicode="&#xa2;" glyph-name="cent" horiz-adv-x="399" d="M190 205T208 169T257 132H371V74Q286 46 265 40V-58H182V33Q119 44 82 99T45 245Q45 291 52 334T71 400Q82 414 113 437T180 482V591H263L262 508Q316 505 371 487L368 340H288L272 418Q242 433
225 433Q218 433 213 429Q202 420 196 377T190 268Q190 205 208 169Z" />
<glyph unicode="&#xa3;" glyph-name="sterling" horiz-adv-x="564" d="M520 0H218Q172 0 124 -7T70 -15L54 56Q87 64 101 77T119 117T124 199V245H54L60 315H124Q126 417 142 470T193 545T295 567Q366 567 510 548L497 373H425L418 468Q386 474 347 480T298 486Q279
486 273 464T266 380Q266 340 267 315H386L379 245H267Q265 182 255 149T225 90L424 71L439 182H512L520 0Z" />
<glyph unicode="&#xa4;" glyph-name="currency" horiz-adv-x="694" d="M79 164L152 238Q119 295 119 364Q119 436 155 494L79 573L132 627L205 552Q269 605 354 605Q435 605 495 559L562 627L614 573L545 503Q581 445 581 374Q581 301 541 239L615 163L562 109L490
183Q427 133 345 133Q262 133 201 181L132 110L79 164ZM409 235T440 270T471 369Q471 428 441 465T351 503Q291 503 260 468T228 369Q228 310 259 273T349 235Q409 235 440 270Z" />
<glyph unicode="&#xa5;" glyph-name="yen" horiz-adv-x="615" d="M164 57L237 74V149H104L111 220H236L214 262H104L111 333H181L104 475L29 495V553H298V487L247 476L319 319H330L398 473L342 487V553H586V495L513 476L434 333H518L511 262H397L381 231V220H518L511
149H381V78L454 62V-1H165L164 57Z" />
<glyph unicode="&#xa6;" glyph-name="brokenbar" horiz-adv-x="230" d="M64 676H166V307H64V676ZM64 185H166V-187H64V185Z" />
<glyph unicode="&#xa7;" glyph-name="section" horiz-adv-x="519" d="M250 -104T186 -102T81 -95L92 71H156L165 -15L191 -19Q249 -29 272 -29Q277 -29 282 -16T288 10Q288 35 266 58T204 106Q144 142 113 176T81 257Q81 280 88 301Q111 333 161 366Q134 388 121
414T107 474Q107 496 113 515Q123 533 155 558T222 601T272 620Q298 619 344 615T435 607L425 448H362L352 526Q344 528 304 538T248 548Q241 548 232 533T223 506Q223 481 248 458T325 403Q385 367 419 333T453 260Q453 231 445 205Q431 179 377 134Q431 87 431
36Q431 23 429 7T423 -18Q413 -36 386 -56T330 -90T286 -104Q250 -104 186 -102ZM319 204T319 222Q319 244 305 261T274 290T225 321Q213 301 213 284Q213 256 238 234T309 184Q319 204 319 222Z" />
<glyph unicode="&#xa8;" glyph-name="dieresis" horiz-adv-x="325" d="M0 654L115 660L136 634L127 537H9L0 654ZM189 654L304 660L325 634L316 537H198L189 654Z" />
<glyph unicode="&#xa9;" glyph-name="copyright" horiz-adv-x="860" d="M314 68T235 115T115 245T75 431Q75 534 116 616T239 746T433 794Q545 794 624 747T744 617T785 431Q785 328 744 246T621 116T427 68Q314 68 235 115ZM516 149T575 186T665 286T695 430Q695
511 665 575T575 676T430 713Q345 713 286 676T196 576T166 432Q166 351 196 287T285 186T430 149Q516 149 575 186ZM352 256T318 303T283 429Q283 492 298 541Q315 564 360 592T421 621Q439 620 471 618T533 613L526 482H482L474 555L450 560Q443 561 427 564T403
567Q390 567 382 532T374 450Q374 378 390 345T443 312L522 320L527 276Q497 269 461 263T412 256Q352 256 318 303Z" />
<glyph unicode="&#xaa;" glyph-name="ordfeminine" horiz-adv-x="416" d="M106 319T68 363T30 486Q30 518 35 550T48 600Q64 619 116 652T185 686Q197 686 255 678T354 663V391L386 379V335Q363 331 327 326T269 319Q265 319 252 332T239 350V374L217 356Q209
349 190 334T167 319Q106 319 68 363ZM196 399T213 410T235 424V608Q185 633 176 633Q170 633 164 593T157 497Q157 456 168 428T193 399Q196 399 213 410Z" />
<glyph unicode="&#xab;" glyph-name="guillemotleft" horiz-adv-x="486" d="M29 196V269L181 423L232 387L159 239V226L231 74L180 37L29 196ZM234 196V269L386 423L436 387L364 239V226L435 74L384 37L234 196Z" />
<glyph unicode="&#xac;" glyph-name="logicalnot" horiz-adv-x="468" d="M444 136H348V239H14V331H444V136Z" />
<glyph unicode="&#xad;" glyph-name="uni00AD" horiz-adv-x="317" d="M34 292H282V196H34V292Z" />
<glyph unicode="&#xae;" glyph-name="registered" horiz-adv-x="688" d="M253 224T191 262T97 364T65 510Q65 590 98 654T194 757T346 795Q435 795 497 758T591 655T623 510Q623 430 590 365T494 262T342 224Q253 224 191 262ZM440 299T491 357T543 509Q543 568
521 616T453 692T344 721Q248 721 197 663T146 510Q146 451 168 403T235 327T344 299Q440 299 491 357ZM230 402L256 407V616L230 623V651H365Q449 651 449 573Q449 542 436 521T404 489V482L444 412L469 404L470 375H396L347 480H319V409L344 404L345 375H230V402ZM345
520Q365 520 373 530T382 565Q382 593 377 605T356 618L321 615V520H345Z" />
<glyph unicode="&#xaf;" glyph-name="overscore" horiz-adv-x="302" d="M0 635H302V547H0V635Z" />
<glyph unicode="&#xb0;" glyph-name="degree" horiz-adv-x="319" d="M100 371T67 405T34 491Q34 525 49 554T94 602T161 620Q218 620 251 585T285 499Q285 465 269 436T224 389T158 371Q100 371 67 405ZM180 444T193 459T207 496Q207 518 194 532T159 547Q138
547 125 532T111 495Q111 473 124 459T159 444Q180 444 193 459Z" />
<glyph unicode="&#xb1;" glyph-name="plusminus" horiz-adv-x="549" d="M470 362V273H324V122H225V273H79V362H225V512H325V362H470ZM79 69H470V-19H79V69Z" />
<glyph unicode="&#xb2;" glyph-name="uni00B2" horiz-adv-x="414" d="M368 490V363H56L48 406L175 552Q207 587 207 619Q207 631 203 640T191 649Q182 649 133 630L127 570H72L67 696Q109 704 153 709T224 715Q280 715 313 694T346 625Q346 585 308 540L224 440V433H307L315
490H368Z" />
<glyph unicode="&#xb3;" glyph-name="uni00B3" horiz-adv-x="428" d="M327 547T345 527T364 477Q364 448 345 420T290 374T211 356Q199 356 157 360T79 370L83 420L153 419Q184 419 192 421Q205 422 214 437T223 473Q223 491 217 502T202 513H142V561Q182 567
199 586T216 631Q216 644 213 653T202 662Q198 662 178 657T138 644L131 598H77L76 706Q158 717 216 717Q347 717 347 635Q347 592 291 562V556Q327 547 345 527Z" />
<glyph unicode="&#xb4;" glyph-name="acute" horiz-adv-x="213" d="M0 563L141 710L213 643L209 602L38 517L0 563Z" />
<glyph unicode="&#xb5;" glyph-name="uni00B5" horiz-adv-x="538" d="M512 16Q487 7 460 0T424 -8Q401 -8 370 7T321 46Q293 26 267 9T236 -8Q212 -8 185 -3V-53Q185 -90 196 -116T220 -151Q229 -156 296 -159L306 -211Q278 -221 248 -230T208 -240Q193 -240 158
-212T94 -146T66 -78V382L28 395L27 450Q57 455 98 460T161 468Q167 468 184 452T202 427V140Q202 99 219 88T259 76Q267 76 280 80T306 91V382L268 395L267 450Q295 454 337 460T401 468Q407 468 424 451T442 427V124Q442 98 447 86T465 68T503 61L512 16Z" />
<glyph unicode="&#xb6;" glyph-name="paragraph" horiz-adv-x="771" d="M489 609L693 608V542L608 524V85L691 59V0H489V609ZM237 61L307 82V184L238 185Q150 186 100 249T50 422Q50 512 93 560T220 608H427V0H237V61Z" />
<glyph unicode="&#xb7;" glyph-name="middot" horiz-adv-x="224" d="M75 251T59 267T43 292L40 375Q64 381 97 386T146 392Q152 392 168 375T185 350L177 264Q158 260 128 256T81 251Q75 251 59 267Z" />
<glyph unicode="&#xb8;" glyph-name="cedilla" horiz-adv-x="183" d="M0 -179Q42 -160 59 -149T76 -125Q76 -114 59 -105T17 -93L7 -58L31 11L96 8L93 -41Q133 -48 158 -69T183 -114Q183 -143 170 -167Q159 -178 119 -196T29 -233L0 -179Z" />
<glyph unicode="&#xb9;" glyph-name="uni00B9" horiz-adv-x="404" d="M354 414V363H75V416L157 429V624L70 618V675L226 718L286 691V425L354 414Z" />
<glyph unicode="&#xba;" glyph-name="ordmasculine" horiz-adv-x="405" d="M127 317T79 359T30 486Q30 517 35 548T48 597Q63 616 119 651T192 686Q280 686 327 642T375 515Q375 486 370 455T357 405Q342 386 286 352T214 317Q127 317 79 359ZM242 391Q248 435
248 504Q248 552 241 582T213 623Q206 626 195 628T177 630Q172 630 165 590T157 498Q157 436 172 406T211 376L242 391Z" />
<glyph unicode="&#xbb;" glyph-name="guillemotright" horiz-adv-x="486" d="M51 74L122 226V239L49 387L100 423L252 269V196L101 37L51 74ZM255 74L327 226V239L254 387L304 423L456 269V196L306 37L255 74Z" />
<glyph unicode="&#xbc;" glyph-name="onequarter" horiz-adv-x="963" d="M354 576V525H75V578L157 591V786L70 780V837L226 880L286 853V587L354 576ZM896 73H838V0H725V73H557L543 140L654 344H838V147H896V73ZM725 147V268H718L659 153L660 147H725ZM578 621H680L388
-12H285L578 621Z" />
<glyph unicode="&#xbd;" glyph-name="onehalf" horiz-adv-x="931" d="M354 576V525H75V578L157 591V786L70 780V837L226 880L286 853V587L354 576ZM571 621H673L381 -12H278L571 621ZM885 127V0H573L565 43L692 189Q724 224 724 256Q724 268 720 277T708 286Q699
286 650 267L644 207H589L584 333Q626 341 670 346T741 352Q797 352 830 331T863 262Q863 222 825 177L741 77V70H824L832 127H885Z" />
<glyph unicode="&#xbe;" glyph-name="threequarters" horiz-adv-x="924" d="M327 709T345 689T364 639Q364 610 345 582T290 536T211 518Q199 518 157 522T79 532L83 582L153 581Q184 581 192 583Q205 584 214 599T223 635Q223 653 217 664T202 675H142V723Q182
729 199 748T216 793Q216 806 213 815T202 824Q198 824 178 819T138 806L131 760H77L76 868Q158 879 216 879Q347 879 347 797Q347 754 291 724V718Q327 709 345 689ZM857 73H799V0H686V73H518L504 140L615 344H799V147H857V73ZM686 147V268H679L620 153L621 147H686ZM548
621H650L358 -12H255L548 621Z" />
<glyph unicode="&#xbf;" glyph-name="questiondown" horiz-adv-x="479" d="M247 329L238 450Q290 456 336 456Q342 456 354 443T366 425L352 329H247ZM422 -167Q295 -192 225 -192Q145 -192 105 -160T64 -56Q64 -19 78 10T113 62T170 117L197 141Q226 168 238
194T252 269Q310 279 326 279Q330 279 339 273T348 262L352 184Q353 145 333 117T272 52Q229 14 212 -13T194 -67Q194 -86 200 -101T221 -116Q239 -116 325 -95L341 5H415L422 -167Z" />
<glyph unicode="&#xc0;" glyph-name="Agrave" horiz-adv-x="626" d="M-1 57L61 77L226 602Q266 608 312 612T379 619Q382 619 399 608L567 77L629 57V0H342V64L410 82L382 184H212L188 82L258 64V0H-1V57ZM361 261L302 493H291L232 261H361ZM200 697L186 737L236
819L414 713L394 658L200 697Z" />
<glyph unicode="&#xc1;" glyph-name="Aacute" horiz-adv-x="626" d="M-1 57L61 77L226 602Q266 608 312 612T379 619Q382 619 399 608L567 77L629 57V0H342V64L410 82L382 184H212L188 82L258 64V0H-1V57ZM361 261L302 493H291L232 261H361ZM202 713L381 816L430
737L416 697L222 658L202 713Z" />
<glyph unicode="&#xc2;" glyph-name="Acircumflex" horiz-adv-x="626" d="M-1 57L61 77L226 602Q266 608 312 612T379 619Q382 619 399 608L567 77L629 57V0H342V64L410 82L382 184H212L188 82L258 64V0H-1V57ZM361 261L302 493H291L232 261H361ZM157 708L270
816H354L467 708L424 659L317 714H307L200 659L157 708Z" />
<glyph unicode="&#xc3;" glyph-name="Atilde" horiz-adv-x="626" d="M-1 57L61 77L226 602Q266 608 312 612T379 619Q382 619 399 608L567 77L629 57V0H342V64L410 82L382 184H212L188 82L258 64V0H-1V57ZM361 261L302 493H291L232 261H361ZM359 661T339 668T289
689Q261 703 251 703Q242 703 226 692T197 669L153 714Q171 739 202 769T249 800Q267 800 287 793T336 773Q370 757 380 757Q388 757 403 768T431 792L476 746Q461 724 428 693T379 661Q359 661 339 668Z" />
<glyph unicode="&#xc4;" glyph-name="Adieresis" horiz-adv-x="626" d="M-1 57L61 77L226 602Q266 608 312 612T379 619Q382 619 399 608L567 77L629 57V0H342V64L410 82L382 184H212L188 82L258 64V0H-1V57ZM361 261L302 493H291L232 261H361ZM142 778L257 784L278
757L269 661H151L142 778ZM345 778L460 784L481 757L472 661H354L345 778Z" />
<glyph unicode="&#xc5;" glyph-name="Aring" horiz-adv-x="626" d="M-1 57L61 77L226 602Q266 608 312 612T379 619Q382 619 399 608L567 77L629 57V0H342V64L410 82L382 184H212L188 82L258 64V0H-1V57ZM361 261L302 493H291L232 261H361ZM258 656T231 682T203
767Q203 818 231 846T312 875Q366 875 394 849T422 764Q422 713 393 685T311 656Q258 656 231 682ZM327 720T340 728Q344 740 344 765Q344 792 337 802T312 812Q298 812 285 804Q281 791 281 766Q281 739 288 730T311 720Q327 720 340 728Z" />
<glyph unicode="&#xc6;" glyph-name="AE" horiz-adv-x="852" d="M3 57L65 77L308 528L244 551V608H813L800 422H726L714 537L569 523V355L704 350V276L569 270V87L730 71L747 190H821L825 0H359V57L420 80V185H242L192 82L261 64V0H3V57ZM420 262V517H403L277 262H420Z" />
<glyph unicode="&#xc7;" glyph-name="Ccedilla" horiz-adv-x="479" d="M402 4T298 -7L296 -41Q336 -48 361 -69T386 -114Q386 -143 373 -167Q362 -178 322 -196T232 -233L203 -179Q245 -160 262 -149T279 -125Q279 -114 262 -105T220 -93L210 -58L227 -10Q130
-1 79 70T27 283Q27 346 36 399T59 489Q79 514 121 545T207 597T269 619Q283 619 342 613T451 601L439 403H365L351 519Q329 525 298 529T248 534Q230 534 221 529Q204 519 194 459T183 310Q183 185 212 136T300 86H352L370 210H442L446 14Q402 4 298 -7Z" />
<glyph unicode="&#xc8;" glyph-name="Egrave" horiz-adv-x="523" d="M29 57L90 80V528L29 551V608H490L477 422H403L391 537L239 523V355L378 350V276L239 270V87L400 71L417 190H491L495 0H29V57ZM163 697L149 737L199 819L377 713L357 658L163 697Z" />
<glyph unicode="&#xc9;" glyph-name="Eacute" horiz-adv-x="523" d="M29 57L90 80V528L29 551V608H490L477 422H403L391 537L239 523V355L378 350V276L239 270V87L400 71L417 190H491L495 0H29V57ZM165 713L344 816L393 737L379 697L185 658L165 713Z" />
<glyph unicode="&#xca;" glyph-name="Ecircumflex" horiz-adv-x="523" d="M29 57L90 80V528L29 551V608H490L477 422H403L391 537L239 523V355L378 350V276L239 270V87L400 71L417 190H491L495 0H29V57ZM120 708L233 816H317L430 708L387 659L280 714H270L163
659L120 708Z" />
<glyph unicode="&#xcb;" glyph-name="Edieresis" horiz-adv-x="523" d="M29 57L90 80V528L29 551V608H490L477 422H403L391 537L239 523V355L378 350V276L239 270V87L400 71L417 190H491L495 0H29V57ZM105 778L220 784L241 757L232 661H114L105 778ZM308 778L423
784L444 757L435 661H317L308 778Z" />
<glyph unicode="&#xcc;" glyph-name="Igrave" horiz-adv-x="338" d="M30 57L94 80V528L29 551V608H308V549L243 526V82L308 60V0H30V57ZM57 697L43 737L93 819L271 713L251 658L57 697Z" />
<glyph unicode="&#xcd;" glyph-name="Iacute" horiz-adv-x="338" d="M30 57L94 80V528L29 551V608H308V549L243 526V82L308 60V0H30V57ZM59 713L238 816L287 737L273 697L79 658L59 713Z" />
<glyph unicode="&#xce;" glyph-name="Icircumflex" horiz-adv-x="338" d="M30 57L94 80V528L29 551V608H308V549L243 526V82L308 60V0H30V57ZM14 708L127 816H211L324 708L281 659L174 714H164L57 659L14 708Z" />
<glyph unicode="&#xcf;" glyph-name="Idieresis" horiz-adv-x="338" d="M30 57L94 80V528L29 551V608H308V549L243 526V82L308 60V0H30V57ZM-1 778L114 784L135 757L126 661H8L-1 778ZM202 778L317 784L338 757L329 661H211L202 778Z" />
<glyph unicode="&#xd0;" glyph-name="Eth" horiz-adv-x="597" d="M414 608T461 580T539 488T570 320Q570 157 515 79T359 0H29V57L90 80V280H25V335H90V528L29 551V608H359Q414 608 461 580ZM374 72T395 136T416 312Q416 407 395 472T337 537L239 527V335H331L330
280H239V83L337 72Q374 72 395 136Z" />
<glyph unicode="&#xd1;" glyph-name="Ntilde" horiz-adv-x="638" d="M405 -10T388 0L275 237Q240 305 205 414H196L206 123V87L274 64V0H29V57L90 80V528L29 551V608H261L391 330Q413 285 445 180H454L445 488V521L377 544V608H621V551L560 528V6Q530 3 481 -2T408
-10Q405 -10 388 0ZM369 661T349 668T299 689Q271 703 261 703Q252 703 236 692T207 669L163 714Q181 739 212 769T259 800Q277 800 297 793T346 773Q380 757 390 757Q398 757 413 768T441 792L486 746Q471 724 438 693T389 661Q369 661 349 668Z" />
<glyph unicode="&#xd2;" glyph-name="Ograve" horiz-adv-x="584" d="M169 -11T98 60T27 285Q27 348 36 400T59 489Q79 514 121 545T207 597T269 619Q415 619 486 548T557 321Q557 209 527 113Q507 90 463 61T376 10T314 -11Q169 -11 98 60ZM317 68T349 80T385
97Q400 180 400 303Q400 425 376 482T284 539Q239 539 221 530Q204 521 194 460T183 306Q183 214 194 163T232 90T307 68Q317 68 349 80ZM181 697L167 737L217 819L395 713L375 658L181 697Z" />
<glyph unicode="&#xd3;" glyph-name="Oacute" horiz-adv-x="584" d="M169 -11T98 60T27 285Q27 348 36 400T59 489Q79 514 121 545T207 597T269 619Q415 619 486 548T557 321Q557 209 527 113Q507 90 463 61T376 10T314 -11Q169 -11 98 60ZM317 68T349 80T385
97Q400 180 400 303Q400 425 376 482T284 539Q239 539 221 530Q204 521 194 460T183 306Q183 214 194 163T232 90T307 68Q317 68 349 80ZM183 713L362 816L411 737L397 697L203 658L183 713Z" />
<glyph unicode="&#xd4;" glyph-name="Ocircumflex" horiz-adv-x="584" d="M169 -11T98 60T27 285Q27 348 36 400T59 489Q79 514 121 545T207 597T269 619Q415 619 486 548T557 321Q557 209 527 113Q507 90 463 61T376 10T314 -11Q169 -11 98 60ZM317 68T349 80T385
97Q400 180 400 303Q400 425 376 482T284 539Q239 539 221 530Q204 521 194 460T183 306Q183 214 194 163T232 90T307 68Q317 68 349 80ZM137 708L250 816H334L447 708L404 659L297 714H287L180 659L137 708Z" />
<glyph unicode="&#xd5;" glyph-name="Otilde" horiz-adv-x="584" d="M169 -11T98 60T27 285Q27 348 36 400T59 489Q79 514 121 545T207 597T269 619Q415 619 486 548T557 321Q557 209 527 113Q507 90 463 61T376 10T314 -11Q169 -11 98 60ZM317 68T349 80T385
97Q400 180 400 303Q400 425 376 482T284 539Q239 539 221 530Q204 521 194 460T183 306Q183 214 194 163T232 90T307 68Q317 68 349 80ZM340 661T320 668T270 689Q242 703 232 703Q223 703 207 692T178 669L134 714Q152 739 183 769T230 800Q248 800 268 793T317
773Q351 757 361 757Q369 757 384 768T412 792L457 746Q442 724 409 693T360 661Q340 661 320 668Z" />
<glyph unicode="&#xd6;" glyph-name="Odieresis" horiz-adv-x="584" d="M169 -11T98 60T27 285Q27 348 36 400T59 489Q79 514 121 545T207 597T269 619Q415 619 486 548T557 321Q557 209 527 113Q507 90 463 61T376 10T314 -11Q169 -11 98 60ZM317 68T349 80T385
97Q400 180 400 303Q400 425 376 482T284 539Q239 539 221 530Q204 521 194 460T183 306Q183 214 194 163T232 90T307 68Q317 68 349 80ZM122 778L237 784L258 757L249 661H131L122 778ZM325 778L440 784L461 757L452 661H334L325 778Z" />
<glyph unicode="&#xd7;" glyph-name="multiply" horiz-adv-x="534" d="M389 39L268 196L143 39L222 218L236 236L222 255L147 432L267 276L389 432L312 252L298 235L313 216L389 39Z" />
<glyph unicode="&#xd8;" glyph-name="Oslash" horiz-adv-x="584" d="M557 482T557 321Q557 209 527 113Q507 90 463 61T376 10T314 -11Q225 -11 162 16L109 -75L57 -79L42 -63L108 51Q27 122 27 285Q27 348 36 400T59 489Q79 514 121 545T207 597T269 619Q362
619 424 591L463 658L515 661L528 641L478 555Q557 482 557 321ZM183 233T190 190L368 496Q342 539 284 539Q239 539 221 530Q204 521 194 460T183 306Q183 233 190 190ZM400 180T400 303Q400 375 394 413L216 108Q231 87 253 78T307 68Q317 68 349 80T385 97Q400
180 400 303Z" />
<glyph unicode="&#xd9;" glyph-name="Ugrave" horiz-adv-x="641" d="M164 -11T123 37T82 190V528L21 551V608H287V544L229 520V219Q229 154 244 134T288 113Q310 113 353 124T403 138V520L345 544V608H611V551L550 528V80L611 57V0H430L408 60Q269 -11 260 -11Q164
-11 123 37ZM204 697L190 737L240 819L418 713L398 658L204 697Z" />
<glyph unicode="&#xda;" glyph-name="Uacute" horiz-adv-x="641" d="M164 -11T123 37T82 190V528L21 551V608H287V544L229 520V219Q229 154 244 134T288 113Q310 113 353 124T403 138V520L345 544V608H611V551L550 528V80L611 57V0H430L408 60Q269 -11 260 -11Q164
-11 123 37ZM206 713L385 816L434 737L420 697L226 658L206 713Z" />
<glyph unicode="&#xdb;" glyph-name="Ucircumflex" horiz-adv-x="641" d="M164 -11T123 37T82 190V528L21 551V608H287V544L229 520V219Q229 154 244 134T288 113Q310 113 353 124T403 138V520L345 544V608H611V551L550 528V80L611 57V0H430L408 60Q269 -11 260
-11Q164 -11 123 37ZM161 708L274 816H358L471 708L428 659L321 714H311L204 659L161 708Z" />
<glyph unicode="&#xdc;" glyph-name="Udieresis" horiz-adv-x="641" d="M164 -11T123 37T82 190V528L21 551V608H287V544L229 520V219Q229 154 244 134T288 113Q310 113 353 124T403 138V520L345 544V608H611V551L550 528V80L611 57V0H430L408 60Q269 -11 260
-11Q164 -11 123 37ZM146 778L261 784L282 757L273 661H155L146 778ZM349 778L464 784L485 757L476 661H358L349 778Z" />
<glyph unicode="&#xdd;" glyph-name="Yacute" horiz-adv-x="563" d="M143 57L208 80V235L57 531L-5 551V608H265V544L209 526Q263 399 292 336H302Q322 379 384 526L325 544V608H568V551L506 531Q458 432 357 237V80L422 57V0H143V57ZM185 713L364 816L413 737L399
697L205 658L185 713Z" />
<glyph unicode="&#xde;" glyph-name="Thorn" horiz-adv-x="544" d="M444 496T484 456T524 329Q524 230 472 184T338 138H242V82L308 60V0H29V57L93 80V528L29 551V608H308V549L242 526V496H367Q444 496 484 456ZM334 220T349 224T372 247T381 307Q381 361 368
391T326 421L242 410V220H303Q334 220 349 224Z" />
<glyph unicode="&#xdf;" glyph-name="germandbls" horiz-adv-x="517" d="M363 335T378 318T423 277Q469 237 493 207T517 135Q517 120 512 92Q499 66 455 29T390 -9Q364 -9 306 -6T193 3V-19Q193 -47 165 -86T101 -154T49 -184Q24 -184 -63 -151L-60 -90Q-31 -90
2 -88T43 -83Q54 -77 57 -51T60 26V500Q60 520 88 558T151 626T208 657Q301 657 370 628T440 518Q440 489 429 467T396 418Q379 396 371 382T363 353Q363 335 378 318ZM360 69T367 81T375 109Q375 135 358 158T308 212Q273 245 255 269T237 323Q237 358 251 383T294
441Q314 465 322 477T330 504Q330 535 297 547Q270 558 245 566T211 575Q204 575 199 558T194 520L193 100Q323 69 352 69Q360 69 367 81Z" />
<glyph unicode="&#xe0;" glyph-name="agrave" horiz-adv-x="482" d="M120 -11T74 46T28 207Q28 251 35 294T53 361Q72 385 139 426T227 468Q237 468 313 456T424 439V79L464 64V9Q342 -11 329 -11Q324 -11 308 5T291 27V56Q206 -11 198 -11Q120 -11 74 46ZM228
87T286 116V370Q266 381 243 390T208 400Q192 400 184 357T175 218Q175 161 189 124T222 87Q228 87 286 116ZM133 602L129 643L201 710L342 563L304 517L133 602Z" />
<glyph unicode="&#xe1;" glyph-name="aacute" horiz-adv-x="482" d="M120 -11T74 46T28 207Q28 251 35 294T53 361Q72 385 139 426T227 468Q237 468 313 456T424 439V79L464 64V9Q342 -11 329 -11Q324 -11 308 5T291 27V56Q206 -11 198 -11Q120 -11 74 46ZM228
87T286 116V370Q266 381 243 390T208 400Q192 400 184 357T175 218Q175 161 189 124T222 87Q228 87 286 116ZM157 563L298 710L370 643L366 602L195 517L157 563Z" />
<glyph unicode="&#xe2;" glyph-name="acircumflex" horiz-adv-x="482" d="M120 -11T74 46T28 207Q28 251 35 294T53 361Q72 385 139 426T227 468Q237 468 313 456T424 439V79L464 64V9Q342 -11 329 -11Q324 -11 308 5T291 27V56Q206 -11 198 -11Q120 -11 74 46ZM228
87T286 116V370Q266 381 243 390T208 400Q192 400 184 357T175 218Q175 161 189 124T222 87Q228 87 286 116ZM90 565L201 704H289L400 565L351 519L250 601H241L139 519L90 565Z" />
<glyph unicode="&#xe3;" glyph-name="atilde" horiz-adv-x="482" d="M120 -11T74 46T28 207Q28 251 35 294T53 361Q72 385 139 426T227 468Q237 468 313 456T424 439V79L464 64V9Q342 -11 329 -11Q324 -11 308 5T291 27V56Q206 -11 198 -11Q120 -11 74 46ZM228
87T286 116V370Q266 381 243 390T208 400Q192 400 184 357T175 218Q175 161 189 124T222 87Q228 87 286 116ZM291 530T271 537T221 558Q193 572 183 572Q174 572 158 561T129 538L85 583Q103 608 134 638T181 669Q199 669 219 662T268 642Q302 626 312 626Q320
626 335 637T363 661L408 615Q393 593 360 562T311 530Q291 530 271 537Z" />
<glyph unicode="&#xe4;" glyph-name="adieresis" horiz-adv-x="482" d="M120 -11T74 46T28 207Q28 251 35 294T53 361Q72 385 139 426T227 468Q237 468 313 456T424 439V79L464 64V9Q342 -11 329 -11Q324 -11 308 5T291 27V56Q206 -11 198 -11Q120 -11 74 46ZM228
87T286 116V370Q266 381 243 390T208 400Q192 400 184 357T175 218Q175 161 189 124T222 87Q228 87 286 116ZM83 654L198 660L219 634L210 537H92L83 654ZM272 654L387 660L408 634L399 537H281L272 654Z" />
<glyph unicode="&#xe5;" glyph-name="aring" horiz-adv-x="482" d="M120 -11T74 46T28 207Q28 251 35 294T53 361Q72 385 139 426T227 468Q237 468 313 456T424 439V79L464 64V9Q342 -11 329 -11Q324 -11 308 5T291 27V56Q206 -11 198 -11Q120 -11 74 46ZM228
87T286 116V370Q266 381 243 390T208 400Q192 400 184 357T175 218Q175 161 189 124T222 87Q228 87 286 116ZM192 513T165 539T137 624Q137 675 165 703T246 732Q300 732 328 706T356 622Q356 571 327 542T245 513Q192 513 165 539ZM261 577T274 585Q278 597 278
622Q278 649 271 659T246 669Q232 669 219 661Q215 649 215 623Q215 596 222 587T245 577Q261 577 274 585Z" />
<glyph unicode="&#xe6;" glyph-name="ae" horiz-adv-x="681" d="M422 151T444 119T495 87L642 94V36Q603 23 544 6T469 -12Q417 -12 377 9T313 70Q306 65 255 27T198 -11Q120 -11 74 46T28 207Q28 251 35 294T53 361Q72 385 139 426T227 468Q238 468 413 440Q466
470 481 470Q540 470 578 449T637 376T658 230L422 210Q422 151 444 119ZM228 87T291 120Q280 159 280 204Q280 250 287 294T306 361Q280 375 249 388T207 402Q175 402 175 218Q175 161 189 124T222 87Q228 87 291 120ZM440 398T432 360T423 271L523 285Q523 335
513 366T480 401Q472 403 464 403Q457 403 449 401Q440 398 432 360Z" />
<glyph unicode="&#xe7;" glyph-name="ccedilla" horiz-adv-x="376" d="M172 164T190 128T240 91H353V33L332 26Q274 5 234 -5L232 -41Q272 -48 297 -69T322 -114Q322 -143 309 -167Q298 -178 258 -196T168 -233L139 -179Q181 -160 198 -149T215 -125Q215 -114
198 -105T156 -93L146 -58L163 -8Q101 3 65 58T28 204Q28 249 35 292T53 359Q65 375 101 401T175 447T225 468Q251 468 287 462T353 446L350 299H271L254 377Q226 392 208 392Q200 392 196 388Q185 379 179 335T172 227Q172 164 190 128Z" />
<glyph unicode="&#xe8;" glyph-name="egrave" horiz-adv-x="429" d="M131 -12T80 45T28 204Q28 250 35 293T53 361Q65 376 102 402T177 449T229 470Q288 470 326 449T385 376T406 230L170 210Q170 151 192 119T243 87L390 94V36Q351 23 292 6T217 -12Q131 -12
80 45ZM271 285Q271 334 261 364T228 399Q223 400 209 400Q199 400 196 399Q188 396 180 359T170 271L271 285ZM101 602L97 643L169 710L310 563L272 517L101 602Z" />
<glyph unicode="&#xe9;" glyph-name="eacute" horiz-adv-x="429" d="M131 -12T80 45T28 204Q28 250 35 293T53 361Q65 376 102 402T177 449T229 470Q288 470 326 449T385 376T406 230L170 210Q170 151 192 119T243 87L390 94V36Q351 23 292 6T217 -12Q131 -12
80 45ZM271 285Q271 334 261 364T228 399Q223 400 209 400Q199 400 196 399Q188 396 180 359T170 271L271 285ZM125 563L266 710L338 643L334 602L163 517L125 563Z" />
<glyph unicode="&#xea;" glyph-name="ecircumflex" horiz-adv-x="429" d="M131 -12T80 45T28 204Q28 250 35 293T53 361Q65 376 102 402T177 449T229 470Q288 470 326 449T385 376T406 230L170 210Q170 151 192 119T243 87L390 94V36Q351 23 292 6T217 -12Q131
-12 80 45ZM271 285Q271 334 261 364T228 399Q223 400 209 400Q199 400 196 399Q188 396 180 359T170 271L271 285ZM58 565L169 704H257L368 565L319 519L218 601H209L107 519L58 565Z" />
<glyph unicode="&#xeb;" glyph-name="edieresis" horiz-adv-x="429" d="M131 -12T80 45T28 204Q28 250 35 293T53 361Q65 376 102 402T177 449T229 470Q288 470 326 449T385 376T406 230L170 210Q170 151 192 119T243 87L390 94V36Q351 23 292 6T217 -12Q131 -12
80 45ZM271 285Q271 334 261 364T228 399Q223 400 209 400Q199 400 196 399Q188 396 180 359T170 271L271 285ZM51 654L166 660L187 634L178 537H60L51 654ZM240 654L355 660L376 634L367 537H249L240 654Z" />
<glyph unicode="&#xec;" glyph-name="igrave" horiz-adv-x="258" d="M101 -11T81 6T60 30V379L20 393V448Q145 467 158 467Q163 467 180 450T198 427V78L238 65V10Q120 -11 107 -11Q101 -11 81 6ZM7 602L3 643L75 710L216 563L178 517L7 602Z" />
<glyph unicode="&#xed;" glyph-name="iacute" horiz-adv-x="258" d="M101 -11T81 6T60 30V379L20 393V448Q145 467 158 467Q163 467 180 450T198 427V78L238 65V10Q120 -11 107 -11Q101 -11 81 6ZM31 563L172 710L244 643L240 602L69 517L31 563Z" />
<glyph unicode="&#xee;" glyph-name="icircumflex" horiz-adv-x="258" d="M101 -11T81 6T60 30V379L20 393V448Q145 467 158 467Q163 467 180 450T198 427V78L238 65V10Q120 -11 107 -11Q101 -11 81 6ZM-36 565L75 704H163L274 565L225 519L124 601H115L13 519L-36 565Z" />
<glyph unicode="&#xef;" glyph-name="idieresis" horiz-adv-x="258" d="M101 -11T81 6T60 30V379L20 393V448Q145 467 158 467Q163 467 180 450T198 427V78L238 65V10Q120 -11 107 -11Q101 -11 81 6ZM-43 654L72 660L93 634L84 537H-34L-43 654ZM146 654L261 660L282
634L273 537H155L146 654Z" />
<glyph unicode="&#xf0;" glyph-name="eth" horiz-adv-x="467" d="M446 554L380 520Q435 438 435 304Q435 140 372 66T209 -9Q199 -9 162 10T90 52T44 91Q36 113 31 145T26 205Q26 252 45 293T101 361T192 387Q198 387 230 376T290 352Q285 422 271 465L202 430L157
462L158 485L238 525Q206 557 147 560L126 624Q137 625 158 625Q264 625 331 572L404 609L447 576L446 554ZM247 58T270 99T293 229Q293 269 292 288Q274 298 256 304T228 311Q199 311 183 281T167 200Q167 152 176 105T202 58Q247 58 270 99Z" />
<glyph unicode="&#xf1;" glyph-name="ntilde" d="M99 -11T80 5T60 28V378L20 393V448Q143 467 157 467Q162 467 177 451T193 429V402Q219 422 252 444T290 467Q366 467 404 433T443 314V80L483 65V10Q361 -11 350 -11Q344 -11 325 5T305 28V313Q305 369 264 369Q256
369 198 342V80L238 65V10Q117 -11 105 -11Q99 -11 80 5ZM292 530T272 537T222 558Q194 572 184 572Q175 572 159 561T130 538L86 583Q104 608 135 638T182 669Q200 669 220 662T269 642Q303 626 313 626Q321 626 336 637T364 661L409 615Q394 593 361 562T312
530Q292 530 272 537Z" />
<glyph unicode="&#xf2;" glyph-name="ograve" horiz-adv-x="486" d="M28 -11T28 208Q28 251 35 293T53 359Q65 375 103 401T179 449T231 470Q343 470 401 414T459 252Q459 206 452 164T434 95Q415 72 348 31T260 -11Q28 -11 28 208ZM267 61T299 78Q312 156 312
238Q312 309 292 354T227 399Q212 399 201 394Q189 389 182 343T175 222Q175 133 200 97T261 60Q267 61 299 78ZM134 602L130 643L202 710L343 563L305 517L134 602Z" />
<glyph unicode="&#xf3;" glyph-name="oacute" horiz-adv-x="486" d="M28 -11T28 208Q28 251 35 293T53 359Q65 375 103 401T179 449T231 470Q343 470 401 414T459 252Q459 206 452 164T434 95Q415 72 348 31T260 -11Q28 -11 28 208ZM267 61T299 78Q312 156 312
238Q312 309 292 354T227 399Q212 399 201 394Q189 389 182 343T175 222Q175 133 200 97T261 60Q267 61 299 78ZM158 563L299 710L371 643L367 602L196 517L158 563Z" />
<glyph unicode="&#xf4;" glyph-name="ocircumflex" horiz-adv-x="486" d="M28 -11T28 208Q28 251 35 293T53 359Q65 375 103 401T179 449T231 470Q343 470 401 414T459 252Q459 206 452 164T434 95Q415 72 348 31T260 -11Q28 -11 28 208ZM267 61T299 78Q312 156
312 238Q312 309 292 354T227 399Q212 399 201 394Q189 389 182 343T175 222Q175 133 200 97T261 60Q267 61 299 78ZM91 565L202 704H290L401 565L352 519L251 601H242L140 519L91 565Z" />
<glyph unicode="&#xf5;" glyph-name="otilde" horiz-adv-x="486" d="M28 -11T28 208Q28 251 35 293T53 359Q65 375 103 401T179 449T231 470Q343 470 401 414T459 252Q459 206 452 164T434 95Q415 72 348 31T260 -11Q28 -11 28 208ZM267 61T299 78Q312 156 312
238Q312 309 292 354T227 399Q212 399 201 394Q189 389 182 343T175 222Q175 133 200 97T261 60Q267 61 299 78ZM291 530T271 537T221 558Q193 572 183 572Q174 572 158 561T129 538L85 583Q103 608 134 638T181 669Q199 669 219 662T268 642Q302 626 312 626Q320
626 335 637T363 661L408 615Q393 593 360 562T311 530Q291 530 271 537Z" />
<glyph unicode="&#xf6;" glyph-name="odieresis" horiz-adv-x="486" d="M28 -11T28 208Q28 251 35 293T53 359Q65 375 103 401T179 449T231 470Q343 470 401 414T459 252Q459 206 452 164T434 95Q415 72 348 31T260 -11Q28 -11 28 208ZM267 61T299 78Q312 156
312 238Q312 309 292 354T227 399Q212 399 201 394Q189 389 182 343T175 222Q175 133 200 97T261 60Q267 61 299 78ZM84 654L199 660L220 634L211 537H93L84 654ZM273 654L388 660L409 634L400 537H282L273 654Z" />
<glyph unicode="&#xf7;" glyph-name="divide" horiz-adv-x="604" d="M265 367T249 383T233 408L230 491Q254 497 287 502T336 508Q342 508 358 491T375 466L367 380Q348 376 318 372T271 367Q265 367 249 383ZM94 552H509V464H94V552ZM265 -3T249 13T233 38L230
121Q254 127 287 132T336 138Q342 138 358 121T375 96L367 10Q348 6 318 2T271 -3Q265 -3 249 13Z" />
<glyph unicode="&#xf8;" glyph-name="oslash" horiz-adv-x="486" d="M416 409T437 363T459 252Q459 206 452 164T434 95Q415 72 348 31T260 -11Q210 -11 171 -1L132 -86L86 -90L66 -69L110 25Q28 77 28 208Q28 251 35 293T53 359Q65 375 103 401T179 449T231 470Q276
470 312 461L346 535L396 539L412 518L374 435Q416 409 437 363ZM175 195T178 172L274 379Q256 399 227 399Q212 399 201 394Q189 389 182 343T175 222Q175 195 178 172ZM312 156T312 238Q312 271 308 294L210 83Q230 60 261 60Q267 61 299 78Q312 156 312 238Z"
/>
<glyph unicode="&#xf9;" glyph-name="ugrave" horiz-adv-x="499" d="M135 -11T97 23T59 143V377L19 392V447Q140 467 151 467Q157 467 177 451T197 429V144Q197 87 237 87Q245 87 301 114V377L262 392V447Q383 467 395 467Q401 467 420 451T439 429V79L479 64V9Q356
-11 343 -11Q338 -11 323 5T307 27V55Q280 34 248 12T212 -11Q135 -11 97 23ZM123 602L119 643L191 710L332 563L294 517L123 602Z" />
<glyph unicode="&#xfa;" glyph-name="uacute" horiz-adv-x="499" d="M135 -11T97 23T59 143V377L19 392V447Q140 467 151 467Q157 467 177 451T197 429V144Q197 87 237 87Q245 87 301 114V377L262 392V447Q383 467 395 467Q401 467 420 451T439 429V79L479 64V9Q356
-11 343 -11Q338 -11 323 5T307 27V55Q280 34 248 12T212 -11Q135 -11 97 23ZM147 563L288 710L360 643L356 602L185 517L147 563Z" />
<glyph unicode="&#xfb;" glyph-name="ucircumflex" horiz-adv-x="499" d="M135 -11T97 23T59 143V377L19 392V447Q140 467 151 467Q157 467 177 451T197 429V144Q197 87 237 87Q245 87 301 114V377L262 392V447Q383 467 395 467Q401 467 420 451T439 429V79L479
64V9Q356 -11 343 -11Q338 -11 323 5T307 27V55Q280 34 248 12T212 -11Q135 -11 97 23ZM80 565L191 704H279L390 565L341 519L240 601H231L129 519L80 565Z" />
<glyph unicode="&#xfc;" glyph-name="udieresis" horiz-adv-x="499" d="M135 -11T97 23T59 143V377L19 392V447Q140 467 151 467Q157 467 177 451T197 429V144Q197 87 237 87Q245 87 301 114V377L262 392V447Q383 467 395 467Q401 467 420 451T439 429V79L479
64V9Q356 -11 343 -11Q338 -11 323 5T307 27V55Q280 34 248 12T212 -11Q135 -11 97 23ZM73 654L188 660L209 634L200 537H82L73 654ZM262 654L377 660L398 634L389 537H271L262 654Z" />
<glyph unicode="&#xfd;" glyph-name="yacute" horiz-adv-x="443" d="M186 -184T172 -159T159 -128L204 2L162 -4Q159 -4 142 7L43 378L0 391V448Q118 467 128 467Q134 467 153 453T175 432L221 207L233 107H243L312 386L248 394V456L405 467Q410 467 423 449T436
423L305 11L281 -97L330 -115L328 -167Q203 -184 191 -184Q186 -184 172 -159ZM146 563L287 710L359 643L355 602L184 517L146 563Z" />
<glyph unicode="&#xfe;" glyph-name="thorn" horiz-adv-x="476" d="M79 -184T63 -168T46 -145L52 28L53 567L12 582V637Q140 657 153 657Q158 657 174 641T190 618V404Q273 468 278 468Q355 468 402 410T449 247Q449 203 442 161T423 95Q404 72 337 31T249 -11Q239
-11 188 -4V-92L231 -107V-164Q97 -184 84 -184Q79 -184 63 -168ZM302 71T302 233Q302 273 295 304T277 352T254 370Q248 370 190 341L189 84Q215 72 241 63T274 56Q302 71 302 233Z" />
<glyph unicode="&#xff;" glyph-name="ydieresis" horiz-adv-x="443" d="M186 -184T172 -159T159 -128L204 2L162 -4Q159 -4 142 7L43 378L0 391V448Q118 467 128 467Q134 467 153 453T175 432L221 207L233 107H243L312 386L248 394V456L405 467Q410 467 423 449T436
423L305 11L281 -97L330 -115L328 -167Q203 -184 191 -184Q186 -184 172 -159ZM66 654L181 660L202 634L193 537H75L66 654ZM255 654L370 660L391 634L382 537H264L255 654Z" />
<glyph unicode="&#x2013;" glyph-name="endash" horiz-adv-x="448" d="M34 292H414V200H34V292Z" />
<glyph unicode="&#x2014;" glyph-name="emdash" horiz-adv-x="829" d="M34 292H794V200H34V292Z" />
<glyph unicode="&#x2018;" glyph-name="quoteleft" horiz-adv-x="238" d="M74 409T59 425T44 449V500Q44 536 71 585T136 682L192 654L183 627Q161 558 157 542Q160 540 173 530T185 512L181 422Q116 409 80 409Q74 409 59 425Z" />
<glyph unicode="&#x2019;" glyph-name="quoteright" horiz-adv-x="238" d="M46 440L55 467Q77 536 81 552Q78 554 65 564T53 582L58 672Q121 685 158 685Q164 685 179 669T194 645V594Q194 558 167 509T102 412L46 440Z" />
<glyph unicode="&#x201a;" glyph-name="quotesinglbase" horiz-adv-x="229" d="M47 -98Q75 -22 79 -2Q52 17 52 25L58 119Q118 127 153 127Q158 127 171 111T185 87V41Q185 20 158 -32T100 -126L47 -98Z" />
<glyph unicode="&#x201c;" glyph-name="quotedblleft" horiz-adv-x="423" d="M74 409T59 425T44 449V500Q44 536 71 585T136 682L192 654L183 627Q161 558 157 542Q160 540 173 530T185 512L181 422Q116 409 80 409Q74 409 59 425ZM258 409T244 425T229 449V500Q229
536 256 585T320 682L377 654Q351 582 342 542Q345 540 357 530T370 512L365 422Q302 409 264 409Q258 409 244 425Z" />
<glyph unicode="&#x201d;" glyph-name="quotedblright" horiz-adv-x="423" d="M46 440L55 467Q77 536 81 552Q78 554 65 564T53 582L58 672Q121 685 158 685Q164 685 179 669T194 645V594Q194 558 167 509T102 412L46 440ZM231 440L239 463Q242 474 251 503T265
552Q262 554 250 564T237 582L242 672Q307 685 343 685Q349 685 363 669T378 645V594Q378 558 351 509T287 412L231 440Z" />
<glyph unicode="&#x201e;" glyph-name="quotedblbase" horiz-adv-x="411" d="M47 -98Q75 -22 79 -2Q52 17 52 25L58 119Q118 127 153 127Q158 127 171 111T185 87V41Q185 20 158 -32T100 -126L47 -98ZM229 -98Q257 -22 261 -2Q234 17 234 25L240 119Q300 127 335
127Q340 127 353 111T367 87V41Q367 20 340 -32T282 -126L229 -98Z" />
<glyph unicode="&#x2022;" glyph-name="bullet" horiz-adv-x="449" d="M167 137T127 174T87 274Q87 338 127 375T225 412Q282 412 322 375T362 274Q362 211 322 174T225 137Q167 137 127 174Z" />
<glyph unicode="&#x2039;" glyph-name="guilsinglleft" horiz-adv-x="281" d="M29 196V269L181 423L232 387L159 239V226L231 74L180 37L29 196Z" />
<glyph unicode="&#x203a;" glyph-name="guilsinglright" horiz-adv-x="281" d="M51 74L122 226V239L49 387L100 423L252 269V196L101 37L51 74Z" />
</font>
</defs>
</svg>
