<svg id="Capa_1" enable-background="new 0 0 497 497" height="512" viewBox="0 0 497 497" width="512" xmlns="http://www.w3.org/2000/svg"><g><path d="m482 210h-45l-105-105 105-105h30l15 30z" fill="#ffe7ad"/><path d="m437 210h-422v-180l15-30h407z" fill="#fff5de"/><path d="m474.5 497h15c4.142 0 7.5-3.358 7.5-7.5v-279.5l-15-30-15 30v279.5c0 4.142 3.358 7.5 7.5 7.5z" fill="#b88567"/><path d="m467 210h30v-202.5c0-4.142-3.358-7.5-7.5-7.5h-22.5z" fill="#ffd478"/><path d="m7.5 497h15c4.142 0 7.5-3.358 7.5-7.5v-279.5l-15-30-15 30v279.5c0 4.142 3.358 7.5 7.5 7.5z" fill="#b88567"/><path d="m0 7.5v202.5h30v-210h-22.5c-4.142 0-7.5 3.358-7.5 7.5z" fill="#ffe7ad"/></g></svg>
